<?xml version="1.0" standalone="no"?>
<!DOCTYPE svg PUBLIC "-//W3C//DTD SVG 1.1//EN" "http://www.w3.org/Graphics/SVG/1.1/DTD/svg11.dtd" >
<svg>
<metadata>
Created by FontForge 20110222 at Mon Mar  7 11:35:48 2011
 By www-data
Copyright &#60;C&#62; Rubicon Computer Labs Inc., 1990-1996. Release 1.2
</metadata>
<defs>
<font id="Isotype-Medium" horiz-adv-x="1075" >
  <font-face 
    font-family="Isotype"
    font-weight="500"
    font-stretch="normal"
    units-per-em="2048"
    panose-1="2 0 6 9 0 0 0 0 0 0"
    ascent="1638"
    descent="-410"
    x-height="883"
    cap-height="1251"
    bbox="-8 -477 1108 1636"
    underline-thickness="40"
    underline-position="-272"
    unicode-range="U+0020-2122"
  />
    <missing-glyph />
    <glyph glyph-name="space" unicode=" " 
 />
    <glyph glyph-name="exclam" unicode="!" 
d="M639 1157q0 -189 -21 -717q-1 -30 -19 -46.5t-42 -16.5h-39q-25 0 -43.5 16.5t-19.5 46.5q-21 616 -21 717q0 31 9 54t21.5 34.5t28.5 18.5t26 8.5t18 1.5t17.5 -1.5t25.5 -8.5t28.5 -18.5t21.5 -34.5t9 -54zM639 102q0 -43 -29.5 -72.5t-72.5 -29.5t-73 29.5t-30 72.5
q0 44 30 73.5t73 29.5t72.5 -30t29.5 -73z" />
    <glyph glyph-name="quotedbl" unicode="&#x22;" 
d="M819 1161l-28 -428q-6 -61 -64 -61q-59 0 -63 61l-27 428q-4 59 25 86t65 27t66 -27t26 -86zM451 1161l-29 -428q-2 -26 -17.5 -43.5t-46.5 -17.5q-59 0 -63 61l-27 428q-4 59 25.5 86t64.5 27q36 0 66.5 -27t26.5 -86z" />
    <glyph glyph-name="numbersign" unicode="#" 
d="M1004 399q0 -25 -17 -44t-47 -19h-192l-37 -281q-3 -26 -20.5 -40.5t-39.5 -14.5h-10l-16 2q-24 3 -40 19.5t-16 44.5v8l35 262h-211l-37 -281q-3 -26 -20 -40.5t-39 -14.5h-10l-17 2q-23 3 -39 19.5t-16 44.5v8l35 262h-115q-29 0 -46 18.5t-17 42.5v17q0 25 16.5 44
t46.5 19h133l39 303h-172q-29 0 -46 18.5t-17 43.5v16q0 26 16.5 45t46.5 19h191l34 274q4 26 21 40.5t39 14.5h10l16 -2q24 -3 40 -19t16 -42v-10l-33 -256h211l35 274q3 26 20.5 40.5t38.5 14.5h10l17 -2q23 -3 39 -19t16 -42v-10q-14 -117 -33 -256h117q29 0 46.5 -18.5
t17.5 -43.5v-16q0 -26 -17 -45t-47 -19h-135l-41 -303h176q29 0 46.5 -18.5t17.5 -42.5v-17zM662 780h-211l-39 -303h209z" />
    <glyph glyph-name="dollar" unicode="$" 
d="M954 350q0 -56 -20.5 -110.5t-61 -104t-110.5 -86.5t-160 -51v-104q0 -31 -19 -47.5t-44 -16.5t-43.5 17.5t-18.5 46.5v104q-172 16 -266 114t-94 240q0 38 27 65t65 27t65 -27t27 -65q0 -41 -31 -67q41 -140 207 -162v469q-97 18 -168.5 55t-106.5 75t-55.5 84.5
t-24 71.5t-3.5 48q0 119 98 214.5t260 114.5v103q0 30 18.5 46.5t43.5 16.5t44 -17t19 -46v-103q174 -14 263 -103.5t89 -225.5q0 -37 -26.5 -63.5t-63.5 -26.5t-63.5 26.5t-26.5 63.5q0 41 31 67q-52 126 -203 137v-421q85 -16 150.5 -49.5t102.5 -71.5t60.5 -84.5
t31 -82.5t7.5 -71zM477 735v395q-97 -15 -162 -69.5t-65 -126.5q0 -75 66.5 -128.5t160.5 -70.5zM823 342q0 79 -60.5 141.5t-160.5 81.5v-442q97 16 159 78t62 141z" />
    <glyph glyph-name="percent" unicode="%" 
d="M428 1147q0 -117 -51.5 -195t-126.5 -78q-74 0 -126 79t-52 196q0 116 51.5 194t126.5 78t126.5 -78t51.5 -196zM895 1354q0 -17 -4 -25l-578 -1458q-17 -41 -57 -41q-9 0 -23 4l-16 6q-17 6 -29 21.5t-12 34.5q0 11 6 26l576 1458q16 41 61 41q9 0 21 -4l14 -6
q41 -18 41 -57zM1001 102q0 -116 -51 -194t-127 -78q-74 0 -126 78.5t-52 195.5t51.5 195t126.5 78t126.5 -78t51.5 -197zM313 1147q0 61 -21 104t-42 43q-22 0 -43 -43t-21 -104t21.5 -103.5t42.5 -42.5q20 0 41.5 42.5t21.5 103.5zM887 102q0 61 -21 104.5t-43 43.5
q-21 0 -42 -43.5t-21 -104.5t21 -103t42 -42t42.5 42t21.5 103z" />
    <glyph glyph-name="ampersand" unicode="&#x26;" 
d="M1001 821q0 -25 -16.5 -44t-46.5 -19h-80l-47 -123q-37 -106 -79.5 -211.5t-100.5 -202.5q15 -20 36 -42.5t61.5 -49.5t74.5 -27q65 0 76 111q0 10 2.5 22.5t16.5 28t38 15.5q6 0 11.5 -1t18 -6t20 -20.5t7.5 -38.5q0 -54 -18.5 -105.5t-63.5 -91t-108 -39.5
q-118 0 -240 144q-116 -144 -254 -144q-112 0 -182 90.5t-70 213.5q0 86 41 161.5t172 194.5q-59 169 -59 340q0 143 62.5 220t150.5 77q51 0 89 -25.5t59 -68.5t30.5 -90t9.5 -97q0 -25 -6 -54t-24.5 -78.5t-64.5 -114.5t-114 -134q56 -131 154 -286q52 102 131 309l47 123
h-22q-30 0 -47 19t-17 44t17.5 43.5t46.5 18.5h225q29 0 46 -18.5t17 -43.5zM498 993q0 14 -2 33.5t-8.5 50.5t-23 51.5t-40.5 20.5q-41 0 -69.5 -43.5t-28.5 -128.5q0 -118 32 -232q140 161 140 248zM489 221q-99 142 -172 295q-77 -85 -97.5 -122t-20.5 -107
q0 -25 4.5 -53t15.5 -59.5t34.5 -52t55.5 -20.5q97 0 180 119z" />
    <glyph glyph-name="quoteright" unicode="&#x2019;" 
d="M698 1018q0 -76 -23.5 -144.5t-60.5 -116t-73 -79t-70 -47.5q-26 -13 -37 -13q-19 0 -43 19q-20 17 -20 45q0 31 16 41q186 110 186 295q0 6 -1 17t-1 18q-15 -6 -32 -6q-44 0 -74.5 29.5t-30.5 72.5q0 44 27 73t76 29q68 0 114.5 -60.5t46.5 -172.5z" />
    <glyph glyph-name="parenleft" unicode="(" 
d="M891 -111q0 -19 -15 -39t-49 -20q-16 0 -43 16q-184 116 -303.5 322t-118.5 459q2 258 122 464.5t309 323.5q9 6 34 6q34 0 49 -19.5t15 -37.5q0 -14 -7 -25.5t-14 -16.5t-12 -9q-84 -53 -149.5 -127t-102.5 -145.5t-61 -152t-32 -141.5t-9 -120q-1 -82 17.5 -171.5
t57 -183t107 -179t158.5 -142.5q20 -14 26.5 -19.5t13.5 -16.5t7 -26z" />
    <glyph glyph-name="parenright" unicode=")" 
d="M715 627q1 -253 -118.5 -459t-303.5 -322q-27 -16 -43 -16q-33 0 -48.5 20.5t-15.5 38.5q0 15 7 26t13.5 16.5t26.5 19.5q90 57 158.5 142.5t107 179t57 183t17.5 171.5q-1 59 -9 120t-32 141.5t-61 152t-102.5 145.5t-149.5 127q-5 4 -12 9t-14 16.5t-7 25.5
q0 18 15.5 37.5t48.5 19.5q25 0 35 -6q122 -76 216.5 -188.5t153.5 -269t60 -330.5z" />
    <glyph glyph-name="asterisk" unicode="*" 
d="M655 625q58 -32 114.5 -61t82 -43t43.5 -25q35 -18 35 -56q0 -20 -10 -39q-21 -34 -56 -34q-21 0 -39 10t-82.5 51.5t-142.5 89.5q6 -252 6 -266q0 -27 -17.5 -48.5t-51.5 -21.5t-52 21.5t-18 48.5q0 22 3 100t5 164l-227 -139q-17 -10 -37 -10q-39 0 -57 34
q-11 18 -11 39q0 38 35 56q20 12 91.5 49t148.5 80q-58 31 -114.5 60.5t-82 43t-43.5 25.5q-35 16 -35 57q0 22 11 37q19 35 57 35q21 0 37 -11l227 -139q-2 86 -5 164t-3 100q0 27 18 48.5t52 21.5t51.5 -21.5t17.5 -48.5q0 -21 -3 -98t-5 -166l227 139q17 11 39 11
q34 0 56 -35q10 -15 10 -37q0 -41 -35 -57q-18 -12 -43.5 -25.5t-82 -43t-114.5 -60.5z" />
    <glyph glyph-name="plus" unicode="+" 
d="M997 621q0 -26 -16.5 -45t-46.5 -19h-326v-328q0 -29 -18 -46t-43 -17h-17q-25 0 -44 16.5t-19 46.5v328h-326q-29 0 -46 18.5t-17 42.5v17q0 26 16.5 44.5t46.5 18.5h326v326q0 29 18.5 46t42.5 17h17q25 0 44 -16.5t19 -46.5v-326h326q29 0 46 -18t17 -43v-16z" />
    <glyph glyph-name="comma" unicode="," 
d="M707 51q0 -67 -22.5 -125t-56 -95.5t-72.5 -64.5t-71.5 -39t-52.5 -12q-26 0 -45.5 21t-19.5 45q0 17 10.5 29.5t20.5 17t26 10.5q18 7 26.5 10t32.5 17.5t39 30t32 45t26 65.5q-22 -6 -43 -6q-54 0 -90.5 37t-36.5 90t37.5 91t89.5 38q31 0 59.5 -10.5t54 -32.5t41 -64
t15.5 -98z" />
    <glyph glyph-name="hyphen" unicode="-" 
d="M895 440q0 -25 -17 -44t-47 -19h-587q-30 0 -47 19t-17 44t17.5 43.5t46.5 18.5h587q29 0 46.5 -18.5t17.5 -43.5z" />
    <glyph glyph-name="period" unicode="." 
d="M664 127q0 -54 -37 -90.5t-90 -36.5q-54 0 -90.5 36.5t-36.5 90.5t36.5 91.5t90.5 37.5q53 0 90 -37.5t37 -91.5z" />
    <glyph glyph-name="slash" unicode="/" 
d="M956 1354q0 -9 -8 -29l-694 -1458q-16 -37 -55 -37q-17 0 -29 6l-14 6q-16 6 -26.5 21t-10.5 33q0 15 6 30l696 1458q18 37 58 37q14 0 26 -6l15 -8q36 -20 36 -53z" />
    <glyph glyph-name="zero" unicode="0" 
d="M971 625q0 -145 -37 -269t-98.5 -205.5t-139 -127.5t-159.5 -46t-160 46t-139.5 127.5t-98.5 206t-37 270.5q0 143 35.5 265.5t95.5 205t139 129.5t165 47q84 0 162.5 -47t139 -129.5t96.5 -206t36 -266.5zM829 647q0 217 -88 359.5t-204 142.5q-118 0 -205.5 -142
t-87.5 -360q0 -149 39.5 -274.5t107 -198t146.5 -72.5q78 0 145.5 72.5t107 198t39.5 274.5z" />
    <glyph glyph-name="one" unicode="1" 
d="M903 63q0 -25 -16.5 -44t-46.5 -19h-549q-30 0 -47 19t-17 44t17.5 43.5t46.5 18.5h205v864q-104 -90 -220 -90q-24 0 -42.5 18.5t-18.5 43.5q0 24 16.5 41t44.5 20q82 10 140.5 59t105.5 160q7 13 21.5 23t31.5 10q26 0 44 -19t18 -45v-1085h203q29 0 46 -18.5t17 -43.5
z" />
    <glyph glyph-name="two" unicode="2" 
d="M963 63q0 -29 -18.5 -46t-43.5 -17h-731q-25 0 -43 18.5t-18 42.5q0 31 14 43l332 285q48 40 94 80.5t86.5 77.5t74.5 77t58.5 79t38.5 82.5t14 88.5q0 132 -92 203.5t-229 71.5q-85 0 -150 -42.5t-88 -113.5q25 -24 25 -61t-26.5 -63.5t-63.5 -26.5t-64 26.5t-27 63.5
q0 137 112 239.5t292 102.5q196 0 324.5 -108t128.5 -292q0 -73 -24 -139.5t-71.5 -128.5t-96 -109.5t-120.5 -107.5l-313 -264h483v37q0 29 18.5 46t43.5 17h16q26 0 45 -16.5t19 -46.5v-99z" />
    <glyph glyph-name="three" unicode="3" 
d="M981 356q0 -71 -31.5 -139t-87.5 -121.5t-140 -86t-181 -32.5q-193 0 -322 83.5t-129 218.5q0 38 27 65t65 27t65 -27t27 -65q0 -37 -24 -64q34 -56 120.5 -84.5t170.5 -28.5q133 0 216 77t83 177q0 42 -18.5 86t-53 82.5t-91 63t-124.5 24.5h-133q-25 0 -43.5 19
t-18.5 45q0 27 17.5 43t44.5 18l133 11q97 7 163 76t66 161q0 68 -69.5 116t-173.5 48q-27 0 -58.5 -2t-86 -17.5t-81.5 -42.5q17 -25 17 -53q0 -37 -26.5 -63.5t-63.5 -26.5q-38 0 -64 26t-26 64q0 114 98.5 177t290.5 63q171 0 278 -85.5t107 -203.5q0 -86 -44.5 -165.5
t-127.5 -133.5q103 -45 166 -133.5t63 -196.5z" />
    <glyph glyph-name="four" unicode="4" 
d="M1008 414q0 -26 -17 -45t-47 -19h-172v-225h143q29 0 46.5 -18.5t17.5 -43.5t-17 -44t-47 -19h-405q-30 0 -47 19t-17 44t17.5 43.5t46.5 18.5h147v225h-532q-25 0 -43.5 17.5t-18.5 46.5v39q0 19 11 36l483 762q15 25 49 25h103q25 0 44 -17t19 -47v-737h172
q26 0 45 -19t19 -42zM657 475v711l-450 -711h450z" />
    <glyph glyph-name="five" unicode="5" 
d="M961 385q0 -116 -65 -211t-168 -146t-220 -51q-172 0 -287 90t-115 226q0 37 27 63.5t64 26.5t64.5 -26.5t27.5 -63.5q0 -35 -27 -62q14 -35 45 -62t68 -40.5t70.5 -20t62.5 -6.5q126 0 218.5 81.5t92.5 201.5q0 66 -28 127t-88 103t-140 42q-101 0 -161.5 -26
t-106.5 -80q-16 -16 -43 -16h-8q-26 0 -45 16.5t-19 46.5v590q0 29 18.5 46t43.5 17h583q26 0 45 -18.5t19 -42.5q0 -26 -17 -45t-47 -19h-503v-399q91 55 241 55q116 0 208.5 -56.5t141 -147t48.5 -193.5z" />
    <glyph glyph-name="six" unicode="6" 
d="M965 395q0 -179 -126 -298.5t-298 -119.5q-64 0 -123 19t-116.5 65.5t-99.5 117t-67.5 182t-25.5 251.5q0 150 47 277t124.5 210t175 129t201.5 46q140 0 206.5 -64t66.5 -153q0 -38 -26.5 -64t-63.5 -26t-63.5 26t-26.5 64q0 36 20 59q-12 6 -22 11.5t-20 9.5t-20 6.5
t-23.5 4t-29.5 1.5q-68 0 -134.5 -32.5t-122.5 -90.5t-94.5 -146.5t-49.5 -193.5q130 119 305 119q170 0 288 -118t118 -292zM823 395q0 117 -76.5 200t-197.5 83q-107 0 -191 -66t-84 -159q0 -141 74.5 -246t192.5 -105q114 0 198 82.5t84 210.5z" />
    <glyph glyph-name="seven" unicode="7" 
d="M981 1188q0 -27 -12 -39q-253 -249 -366.5 -521.5t-113.5 -586.5q0 -29 -18 -46.5t-43 -17.5h-16q-26 0 -45 17t-19 47q0 300 111.5 593.5t312.5 491.5h-539v-5v-4v-5v-5v-5v-6v-6q0 -29 -18 -46.5t-43 -17.5h-16q-26 0 -45 17t-19 47v131q0 29 18.5 46t43.5 17h16
q40 0 57 -33h693q23 0 42 -18.5t19 -44.5z" />
    <glyph glyph-name="eight" unicode="8" 
d="M983 356q0 -152 -128.5 -265.5t-317.5 -113.5q-188 0 -317.5 113.5t-129.5 265.5q0 111 82 197.5t203 120.5q-121 40 -188.5 112t-67.5 160q0 129 119.5 228.5t298.5 99.5q177 0 297 -99t120 -229q0 -88 -67 -159.5t-189 -112.5q120 -34 202.5 -120.5t82.5 -197.5z
M813 944q0 82 -79.5 143.5t-196.5 61.5q-119 0 -198 -61t-79 -144q0 -86 82 -146.5t195 -60.5t194.5 60t81.5 147zM842 358q0 99 -85 176.5t-220 77.5q-134 0 -220 -77.5t-86 -176.5q0 -106 89.5 -181t216.5 -75t216 75t89 181z" />
    <glyph glyph-name="nine" unicode="9" 
d="M965 639q0 -148 -43.5 -274t-116.5 -210t-167 -131t-196 -47q-75 0 -131.5 16.5t-87.5 40t-50 55t-24.5 56.5t-5.5 50q0 38 27 65t66 27q38 0 65 -27t27 -65q0 -32 -21 -58q46 -35 135 -35q146 0 254 136t123 329q-129 -118 -305 -118q-167 0 -286 118t-119 289
q0 120 61 217t160 149t213 52q62 0 119 -18t113 -64t97.5 -115.5t67 -182t25.5 -255.5zM799 809q0 144 -73.5 242t-182.5 98q-118 0 -205.5 -82.5t-87.5 -210.5q0 -114 78 -197.5t196 -83.5q121 0 198 72t77 162z" />
    <glyph glyph-name="colon" unicode=":" 
d="M664 754q0 -54 -37 -90.5t-90 -36.5q-54 0 -90.5 36.5t-36.5 90.5t36.5 91.5t90.5 37.5q53 0 90 -38t37 -91zM664 127q0 -54 -37 -90.5t-90 -36.5q-54 0 -90.5 36.5t-36.5 90.5t36.5 91.5t90.5 37.5q53 0 90 -37.5t37 -91.5z" />
    <glyph glyph-name="semicolon" unicode=";" 
d="M664 754q0 -54 -37 -90.5t-90 -36.5q-54 0 -90.5 36.5t-36.5 90.5t36.5 91.5t90.5 37.5q53 0 90 -38t37 -91zM678 63q0 -66 -21 -125.5t-52 -99t-66 -68.5t-63 -42t-44 -13q-25 0 -44 21t-19 45q0 13 5.5 23.5t14 16t18 11t17.5 8.5q37 19 75.5 60.5t49.5 101.5
q-7 -2 -12 -2q-54 0 -90.5 36.5t-36.5 90.5t37 91.5t90 37.5q63 0 102 -53t39 -140z" />
    <glyph glyph-name="less" unicode="&#x3c;" 
d="M961 190q0 -18 -11 -34l-8 -13q-20 -30 -51 -30q-20 0 -35 10l-711 446q-30 22 -30 49v19q0 31 30 49l711 444q15 11 37 11q31 0 49 -29l8 -14q11 -20 11 -33q0 -33 -31 -53l-613 -385l613 -385q31 -21 31 -52z" />
    <glyph glyph-name="equal" unicode="=" 
d="M997 776q0 -26 -16.5 -44.5t-46.5 -18.5h-793q-29 0 -46 18t-17 43v17q0 25 16.5 44t46.5 19h793q29 0 46 -18.5t17 -42.5v-17zM997 461q0 -26 -16.5 -45t-46.5 -19h-793q-29 0 -46 18.5t-17 43.5v16q0 26 16.5 45t46.5 19h793q29 0 46 -18.5t17 -43.5v-16z" />
    <glyph glyph-name="greater" unicode="&#x3e;" 
d="M961 618q0 -27 -31 -49l-711 -446q-15 -10 -35 -10q-31 0 -51 30l-8 13q-10 15 -10 34q0 32 30 52l613 385l-613 385q-30 19 -30 53q0 15 10 33l8 14q18 29 49 29q22 0 37 -11l711 -444q31 -19 31 -49v-19z" />
    <glyph glyph-name="question" unicode="?" 
d="M946 1010q0 -123 -135 -199q-82 -45 -135 -101t-70.5 -100.5t-17.5 -87.5v-82q0 -29 -18.5 -46t-43.5 -17h-39q-25 0 -44 16.5t-19 46.5v82q0 28 5 57t23.5 72t49.5 84t87.5 88t131.5 88q22 12 30 17.5t24.5 18.5t23 28.5t6.5 34.5q0 53 -71.5 91t-217.5 38
q-165 0 -229 -72q20 -27 20 -59q0 -39 -26 -64.5t-64 -25.5t-64 25.5t-26 64.5q0 38 12.5 73.5t41.5 69t72.5 58.5t111 40t151.5 15q108 0 190 -19.5t126 -47.5t71.5 -65.5t35 -66t7.5 -55.5zM608 102q0 -43 -29.5 -72.5t-72.5 -29.5t-73 29.5t-30 72.5t30 73t73 30
t72.5 -30t29.5 -73z" />
    <glyph glyph-name="at" unicode="@" 
d="M983 657q0 -101 -21.5 -181t-54 -127t-74 -78.5t-78 -42.5t-69.5 -11q-118 0 -206.5 116.5t-88.5 293.5q0 172 85.5 289.5t209.5 117.5q87 0 133 -41q-55 146 -196 146q-79 0 -154.5 -37.5t-134 -103.5t-94 -163t-35.5 -208q0 -142 59.5 -261t156 -186t206.5 -67
q121 0 217 88q17 20 45 20h31q24 0 41.5 -17t17.5 -42q0 -22 -14 -39q-47 -50 -142 -92.5t-196 -42.5q-106 0 -204.5 49t-172 132.5t-117 203.5t-43.5 254t44 254t117.5 203t170.5 131.5t201 48.5q58 0 107 -17t83.5 -43.5t62.5 -68t45.5 -80t30 -91t18.5 -90t9 -87.5
t3.5 -73t0.5 -57zM868 627q0 121 -55 201.5t-127 80.5q-69 0 -124.5 -79.5t-55.5 -202.5q0 -119 53.5 -202t126.5 -83q69 0 125.5 82.5t56.5 202.5z" />
    <glyph glyph-name="A" unicode="A" 
d="M1018 63q0 -25 -17 -44t-47 -19h-260q-30 0 -46.5 19t-16.5 44t17 43.5t46 18.5h56l-50 213h-325l-51 -213h55q29 0 46 -18.5t17 -43.5t-16.5 -44t-46.5 -19h-260q-30 0 -47 19t-17 44t17.5 43.5t46.5 18.5h59l252 1089q11 54 72 54h69q58 0 72 -54l252 -1089h59
q29 0 46.5 -18.5t17.5 -43.5zM672 463q-129 549 -135 663q-1 -51 -35 -216.5t-68 -305.5l-33 -141h271z" />
    <glyph glyph-name="B" unicode="B" 
d="M987 348q0 -137 -99.5 -242.5t-232.5 -105.5h-546q-30 0 -47 19t-17 44t17.5 43.5t46.5 18.5h77v1001h-77q-30 0 -47 19t-17 45q0 25 17.5 43t46.5 18h501q145 0 239.5 -97.5t94.5 -219.5q0 -94 -60.5 -169.5t-160.5 -109.5q117 -19 190.5 -112t73.5 -195zM803 934
q0 28 -12 60t-34.5 62t-61.5 50t-85 20h-282v-413h231q111 0 177.5 70.5t66.5 150.5zM846 346q0 28 -8.5 60.5t-26.5 64.5t-42.5 58t-60 42.5t-75.5 16.5h-305v-463h280q73 0 129.5 37t82.5 86.5t26 97.5z" />
    <glyph glyph-name="C" unicode="C" 
d="M987 887q0 -29 -18.5 -46.5t-42.5 -17.5h-17q-27 0 -44.5 13t-22.5 51q-17 114 -90 188t-166 74q-148 0 -255.5 -149t-107.5 -373q0 -149 52 -271t134.5 -188t176.5 -66q35 0 77.5 15t84 43.5t69 77.5t27.5 108q0 29 18 46.5t43 17.5h17q25 0 44 -17t19 -47
q0 -150 -120 -259.5t-290 -109.5q-132 0 -245 83.5t-180.5 233.5t-67.5 333q0 136 40 257.5t107 206t157.5 134t188.5 49.5q144 0 259 -96l43 75q11 21 47 21q26 0 44.5 -19t18.5 -45v-323z" />
    <glyph glyph-name="D" unicode="D" 
d="M999 616q0 -134 -37 -251t-97.5 -196t-139.5 -124t-162 -45h-461q-29 0 -46 18.5t-17 42.5q0 26 16.5 45t46.5 19h68v1001h-68q-29 0 -46 18.5t-17 43.5q0 26 16.5 44.5t46.5 18.5h461q115 0 215 -81t160.5 -228t60.5 -326zM858 616q0 122 -40 238t-116 194t-167 78h-224
v-1001h224q89 0 164.5 71.5t117 184.5t41.5 235z" />
    <glyph glyph-name="E" unicode="E" 
d="M1028 63q0 -29 -18.5 -46t-42.5 -17h-850q-30 0 -47 19t-17 44t17.5 43.5t46.5 18.5h82v1001h-82q-30 0 -47 19t-17 45q0 25 17.5 43t46.5 18h803q25 0 44 -16.5t19 -46.5v-191q0 -29 -18.5 -46t-42.5 -17h-17q-26 0 -44.5 16.5t-18.5 46.5v129h-502v-415h270v53
q0 29 18.5 46t43.5 17h16q26 0 45 -16.5t19 -46.5v-234q0 -29 -18.5 -46t-43.5 -17h-16q-26 0 -45 16.5t-19 46.5v56h-270v-461h547v162q0 29 18.5 46t42.5 17h17q25 0 44 -16.5t19 -46.5v-224z" />
    <glyph glyph-name="F" unicode="F" 
d="M999 997q0 -29 -18 -46t-43 -17h-16q-26 0 -45 16.5t-19 46.5v129h-508v-438h279v53q0 29 18 46.5t43 17.5h17q25 0 44 -17t19 -47v-233q0 -29 -18.5 -46.5t-42.5 -17.5h-17q-25 0 -44 17t-19 47v55h-279v-438h125q29 0 46.5 -18.5t17.5 -43.5t-17 -44t-47 -19h-354
q-30 0 -47 19t-17 44t17.5 43.5t46.5 18.5h88v1001h-88q-30 0 -47 19t-17 45q0 25 17.5 43t46.5 18h815q26 0 44.5 -16.5t18.5 -46.5v-191z" />
    <glyph glyph-name="G" unicode="G" 
d="M1016 492q0 -26 -17 -45t-47 -19h-32v-344q0 -20 -1.5 -30.5t-7 -25t-21 -21.5t-40.5 -7q-26 0 -41.5 6t-21.5 21t-7.5 26t-1.5 33q-38 -43 -101 -76t-142 -33q-121 0 -225.5 82.5t-168 233t-63.5 334.5q0 181 63 330.5t167.5 233t226.5 83.5q130 0 239 -92q26 58 40 75
t44 17q22 0 35.5 -7.5t19 -23t6.5 -25.5t1 -28v-285q0 -21 -1.5 -31.5t-7.5 -25t-21.5 -21t-41.5 -6.5q-37 0 -52 15t-18 45q-10 63 -31 112.5t-46 78t-55 46.5t-54.5 24.5t-48.5 6.5q-126 0 -225 -149t-99 -375q0 -220 97 -371.5t225 -151.5q87 0 151.5 81.5t81.5 244.5
h-104q-30 0 -47 19t-17 45q0 24 17.5 42.5t46.5 18.5h282q29 0 46.5 -18.5t17.5 -42.5z" />
    <glyph glyph-name="H" unicode="H" 
d="M1032 63q0 -25 -16.5 -44t-46.5 -19h-287q-30 0 -47 19t-17 44t17.5 43.5t46.5 18.5h74v463h-437v-463h74q29 0 46.5 -18.5t17.5 -43.5t-17 -44t-47 -19h-289q-30 0 -46.5 19t-16.5 44t17 43.5t46 18.5h74v1001h-74q-30 0 -46.5 19t-16.5 45q0 25 17 43t46 18h289
q29 0 46.5 -18t17.5 -43q0 -26 -17 -45t-47 -19h-74v-413h437v413h-74q-30 0 -47 19t-17 45q0 25 17.5 43t46.5 18h287q29 0 46 -18t17 -43q0 -26 -16.5 -45t-46.5 -19h-72v-1001h72q29 0 46 -18.5t17 -43.5z" />
    <glyph glyph-name="I" unicode="I" 
d="M913 63q0 -25 -16.5 -44t-46.5 -19h-627q-30 0 -46.5 19t-16.5 44t17 43.5t46 18.5h244v1001h-244q-30 0 -46.5 19t-16.5 45q0 25 17 43t46 18h627q29 0 46 -18t17 -43q0 -26 -16.5 -45t-46.5 -19h-242v-1001h242q29 0 46 -18.5t17 -43.5z" />
    <glyph glyph-name="J" unicode="J" 
d="M973 1190q0 -26 -17 -45t-47 -19h-80v-870q0 -119 -102 -199t-242 -80q-153 0 -246.5 61.5t-93.5 162.5q0 38 27 65t66 27q38 0 65 -27t27 -65q0 -28 -15 -51q52 -48 170 -48q26 0 58 8t66 24.5t56.5 48.5t22.5 73v870h-188q-30 0 -47 19t-17 45q0 25 17.5 43t46.5 18
h409q29 0 46.5 -18t17.5 -43z" />
    <glyph glyph-name="K" unicode="K" 
d="M1014 63q0 -25 -17 -44t-47 -19h-194q-30 0 -47 19t-17 44t17.5 43.5t46.5 18.5h18l-287 512l-190 -240v-272h65q29 0 46.5 -18.5t17.5 -43.5t-16.5 -44t-47.5 -19h-245q-30 0 -47 19t-17 44t17.5 43.5t46.5 18.5h65v1001h-65q-30 0 -47 19t-17 45q0 25 17.5 43t46.5 18
h245q29 0 46.5 -18t17.5 -43q0 -26 -16.5 -45t-47.5 -19h-65v-544l432 544h-20q-30 0 -47 19t-17 45q0 25 17.5 43t46.5 18h221q29 0 46 -18t17 -43q0 -26 -16.5 -45t-46.5 -19h-53l-312 -393l342 -608h43q29 0 46.5 -18.5t17.5 -43.5z" />
    <glyph glyph-name="L" unicode="L" 
d="M991 63q0 -29 -18 -46t-43 -17h-801q-29 0 -46 18.5t-17 42.5q0 26 16.5 45t46.5 19h94v1001h-94q-29 0 -46 18.5t-17 43.5q0 26 16.5 44.5t46.5 18.5h367q30 0 46.5 -18.5t16.5 -44.5q0 -25 -17 -43.5t-46 -18.5h-131v-1001h485v162q0 29 18.5 46t42.5 17h17
q25 0 44 -16.5t19 -46.5v-224z" />
    <glyph glyph-name="M" unicode="M" 
d="M1032 63q0 -25 -16.5 -44t-46.5 -19h-205q-30 0 -47 19t-17 44t17.5 43.5t46.5 18.5h45v985q-14 -72 -109 -360l-94 -289q-4 -17 -27.5 -31t-46.5 -14q-21 0 -44 14t-27 31q-180 534 -203 649v-985h45q29 0 46.5 -18.5t17.5 -43.5t-17 -44t-47 -19h-205q-30 0 -46.5 19
t-16.5 44t17 43.5t46 18.5h45v1001h-45q-30 0 -46.5 19t-16.5 45q0 25 17 43t46 18h160q27 0 48 -16.5t30 -46.5q172 -516 196 -631q18 72 108 351l91 280q9 30 30 46.5t48 16.5h160q29 0 46 -18t17 -43q0 -26 -16.5 -45t-46.5 -19h-45v-1001h45q29 0 46 -18.5t17 -43.5z
" />
    <glyph glyph-name="N" unicode="N" 
d="M1014 1190q0 -26 -17 -45t-47 -19h-69v-1063q0 -25 -17 -44t-47 -19h-51q-26 0 -48 18.5t-32 44.5q-344 934 -381 1047v-985h70q29 0 46 -18.5t17 -43.5t-16.5 -44t-46.5 -19h-254q-30 0 -47 19t-17 44t17.5 43.5t46.5 18.5h69v1001h-69q-30 0 -47 19t-17 45
q0 25 17.5 43t46.5 18h184q58 0 80 -63q344 -932 381 -1047v985h-70q-30 0 -46.5 19t-16.5 45q0 25 17 43t46 18h254q29 0 46.5 -18t17.5 -43z" />
    <glyph glyph-name="O" unicode="O" 
d="M952 625q0 -119 -2 -198.5t-11 -152t-20.5 -115.5t-36.5 -79.5t-52 -54t-74.5 -30t-97 -15.5t-126.5 -3q-76 0 -125.5 3t-97 15.5t-74.5 30t-51.5 54.5t-35.5 79.5t-20 115t-11 152t-2 198.5q0 121 2 203.5t11.5 155t20.5 115.5t37 79t52 52t74.5 27.5t95.5 14t124 2.5
q61 0 101.5 -1.5t83.5 -8t69 -15.5t53 -28t41.5 -42.5t29.5 -62t21.5 -82t12 -108t7 -135t1.5 -166.5zM811 643q0 95 -1.5 160t-8.5 121.5t-14 90.5t-25 61t-35 40t-50 21.5t-63.5 10t-81.5 1.5t-81.5 -1.5t-63 -10t-49 -21.5t-34.5 -40t-25 -61t-13.5 -90.5t-8 -121.5
t-1.5 -160q0 -85 1.5 -145.5t5 -116.5t11 -92.5t17 -69t26 -51t35 -33t47 -21t59.5 -9.5t74 -3q49 0 82.5 3t64.5 14t49.5 27t35 47t24.5 67.5t14 95.5t7.5 125t1.5 162z" />
    <glyph glyph-name="P" unicode="P" 
d="M977 877q0 -153 -109.5 -264t-257.5 -111h-270v-377h82q29 0 46 -18.5t17 -43.5t-16.5 -44t-46.5 -19h-305q-30 0 -47 19t-17 44t17.5 43.5t46.5 18.5h82v1001h-82q-30 0 -47 19t-17 45q0 25 17.5 43t46.5 18h493q155 0 261 -111.5t106 -262.5zM836 874q0 94 -73.5 173
t-182.5 79h-240v-499h240q102 0 179 77.5t77 169.5z" />
    <glyph glyph-name="Q" unicode="Q" 
d="M952 625q0 -323 -29 -450t-128 -167l127 -237q6 -13 6 -19q0 -15 -11 -26t-26 -11h-84q-23 0 -31 17l-129 248q-33 -3 -115 -3q-76 0 -125.5 3t-97 15.5t-74.5 30t-51.5 54.5t-35.5 79.5t-20 115t-11 152t-2 198.5q0 121 2 203.5t11.5 155t20.5 115.5t37 79t52 52
t74.5 27.5t95.5 14t124 2.5q61 0 101.5 -1.5t83.5 -8t69 -15.5t53 -28t41.5 -42.5t29.5 -62t21.5 -82t12 -108t7 -135t1.5 -166.5zM811 625q0 98 -1.5 166t-8.5 126t-14 93.5t-25 63.5t-35 41t-50 22t-63 10.5t-82 1.5q-51 0 -81.5 -1.5t-63 -10.5t-49 -22t-34.5 -41.5
t-25 -63t-13.5 -93t-8 -126t-1.5 -166.5q0 -93 1.5 -156t7.5 -120.5t13.5 -92.5t23.5 -65.5t34.5 -45.5t49 -26t64 -14t82.5 -3q35 0 52 2l-101 193q-4 6 -4 16q0 16 11 26.5t26 10.5h76q22 0 31 -16q11 -22 28 -54t45 -85.5t27 -53.5q53 42 70.5 146.5t17.5 337.5z" />
    <glyph glyph-name="R" unicode="R" 
d="M1065 188q0 -77 -46 -144t-130 -67q-66 0 -112.5 38t-66.5 93t-20 121v179q0 63 -65 109t-146 46h-160v-438h70q29 0 46.5 -18.5t17.5 -43.5t-17 -44t-47 -19h-280q-30 0 -47 19t-17 44t17.5 43.5t46.5 18.5h69v1001h-69q-30 0 -47 19t-17 45q0 25 17.5 43t46.5 18h395
q107 0 196 -49.5t138 -128t49 -166.5q0 -76 -41 -154.5t-133 -129.5q118 -93 118 -215v-179q0 -44 13 -85.5t45 -41.5q14 0 22.5 19t10.5 36t2 31q0 29 18 46.5t43 17.5h16q26 0 45 -17t19 -47zM745 907q0 80 -74.5 149.5t-185.5 69.5h-166v-438h164q117 0 189.5 68.5
t72.5 150.5z" />
    <glyph glyph-name="S" unicode="S" 
d="M961 340q0 -94 -46.5 -176.5t-134.5 -134.5t-198 -52q-105 0 -199 26.5t-135 68.5l-23 -62q-11 -33 -55 -33q-26 0 -45 19t-19 45v305q0 29 18.5 46.5t43.5 17.5h16q63 0 68 -64q10 -119 86.5 -181.5t243.5 -62.5q110 0 177.5 70.5t67.5 157.5q0 85 -55 145.5t-143 81.5
l-258 59q-116 27 -190.5 120.5t-74.5 201.5q0 135 108 235.5t273 100.5q172 0 283 -94l23 61q11 33 55 33q26 0 44.5 -19t18.5 -45v-305q0 -29 -18 -46t-43 -17h-16q-53 0 -68 63q-5 23 -6.5 30t-9 32.5t-13.5 37t-19 34.5t-26.5 35t-35 29t-45.5 25t-57 14.5t-71 6.5
q-106 0 -174.5 -60t-68.5 -141q0 -71 52.5 -125t131.5 -73l258 -60q46 -10 92.5 -36.5t89.5 -68.5t70 -106t27 -139z" />
    <glyph glyph-name="T" unicode="T" 
d="M1020 997q0 -29 -18.5 -46t-43.5 -17h-16q-26 0 -44.5 16.5t-18.5 46.5v129h-271v-1001h125q29 0 46.5 -18.5t17.5 -43.5t-17 -44t-47 -19h-391q-30 0 -46.5 19t-16.5 44t17 43.5t46 18.5h125v1001h-270v-129q0 -29 -18.5 -46t-43.5 -17h-16q-26 0 -45 16.5t-19 46.5v191
q0 29 18.5 46t43.5 17h839q26 0 45 -16.5t19 -46.5v-191z" />
    <glyph glyph-name="U" unicode="U" 
d="M1063 1190q0 -26 -17 -45t-47 -19h-81v-731q0 -106 -52 -202.5t-141.5 -156t-192.5 -59.5q-153 0 -266.5 125.5t-113.5 292.5v731h-80q-30 0 -47 19t-17 45q0 25 17.5 43t46.5 18h305q29 0 46 -18t17 -43q0 -26 -16.5 -45t-46.5 -19h-84v-731q0 -122 75 -207.5t164 -85.5
q96 0 170 88.5t74 204.5v731h-82q-30 0 -46.5 19t-16.5 45q0 25 17 43t46 18h305q29 0 46.5 -18t17.5 -43z" />
    <glyph glyph-name="V" unicode="V" 
d="M1036 1190q0 -26 -16.5 -45t-46.5 -19h-53l-277 -1089q-14 -53 -72 -53h-69q-58 0 -72 53l-276 1089h-54q-30 0 -46.5 19t-16.5 45q0 25 17 43t46 18h250q29 0 46.5 -18t17.5 -43q0 -26 -17 -45t-47 -19h-51q236 -886 238 -1001q3 51 62 301.5t117 475.5l58 224h-51
q-30 0 -47 19t-17 45q0 25 17.5 43t46.5 18h250q29 0 46 -18t17 -43z" />
    <glyph glyph-name="W" unicode="W" 
d="M1055 1190q0 -26 -17 -45t-47 -19h-10l-152 -1089q-8 -53 -71 -53h-23q-60 0 -71 53q-107 455 -125 569q-9 -71 -66 -320l-57 -249q-11 -53 -72 -53h-22q-64 0 -72 53l-152 1089h-12q-30 0 -46.5 19t-16.5 45q0 25 17 43t46 18h201q29 0 46 -18t17 -43q0 -26 -16.5 -45
t-46.5 -19h-72q117 -794 125 -997q8 90 36 231.5t52 237.5l23 96q11 54 71 54h33q60 0 72 -54q96 -362 110 -569q5 129 66 565l61 436h-73q-30 0 -47 19t-17 45q0 25 17.5 43t46.5 18h200q29 0 46.5 -18t17.5 -43z" />
    <glyph glyph-name="X" unicode="X" 
d="M1012 63q0 -25 -17 -44t-47 -19h-252q-30 0 -46.5 19t-16.5 44t17 43.5t46 18.5h31l-201 397l-188 -397h33q29 0 46 -18.5t17 -43.5t-16.5 -44t-46.5 -19h-252q-30 0 -47 19t-17 44t17.5 43.5t46.5 18.5h65l271 541l-246 460h-68q-30 0 -46.5 19t-16.5 45q0 25 17 43
t46 18h252q29 0 46.5 -18t17.5 -43q0 -26 -17 -45t-47 -19h-24l157 -299l142 299h-31q-30 0 -47 19t-17 45q0 25 17.5 43t46.5 18h252q29 0 46 -18t17 -43q0 -26 -16.5 -45t-46.5 -19h-66l-227 -458l285 -543h67q29 0 46.5 -18.5t17.5 -43.5z" />
    <glyph glyph-name="Y" unicode="Y" 
d="M1030 1190q0 -26 -16.5 -45t-46.5 -19h-62l-297 -626v-375h70q29 0 46 -18.5t17 -43.5t-16.5 -44t-46.5 -19h-281q-30 0 -46.5 19t-16.5 44t17 43.5t46 18.5h70v375l-299 626h-62q-30 0 -46.5 19t-16.5 45q0 25 17 43t46 18h250q29 0 46.5 -18t17.5 -43q0 -26 -17 -45
t-47 -19h-30q183 -373 211 -485q13 51 66 172.5t99 216.5l46 96v0h-1h-1h-1h-1h-1h-1h-1h-1h-1h-1h-2h-1h-1h-2h-1h-2h-1h-2h-9q-30 0 -47 19t-17 45q0 25 17.5 43t46.5 18h250q29 0 46 -18t17 -43z" />
    <glyph glyph-name="Z" unicode="Z" 
d="M987 63q0 -29 -18.5 -46t-42.5 -17h-766q-25 0 -43.5 17t-18.5 46v19q0 21 11 37l684 1007h-529v-129q0 -29 -18.5 -46t-42.5 -17h-17q-25 0 -44 16.5t-19 46.5v191q0 29 18.5 46t42.5 17h729q26 0 45 -16.5t19 -46.5v-14q0 -21 -12 -39l-684 -1010h565v168q0 29 18.5 46
t42.5 17h17q25 0 44 -16.5t19 -46.5v-230z" />
    <glyph glyph-name="bracketleft" unicode="[" 
d="M985 -106q0 -26 -16.5 -45t-46.5 -19h-404q-26 0 -44.5 19t-18.5 45v1464q0 26 17.5 44.5t43.5 18.5h406q29 0 46 -18t17 -43q0 -26 -16.5 -45t-46.5 -19h-326v-1341h326q29 0 46 -18.5t17 -42.5z" />
    <glyph glyph-name="backslash" unicode="\" 
d="M956 -102q0 -32 -36 -54l-15 -8q-12 -6 -26 -6q-40 0 -58 37l-696 1458q-6 15 -6 31q0 18 10.5 32.5t26.5 20.5l14 6q12 6 29 6q39 0 55 -37l694 -1458q8 -20 8 -28z" />
    <glyph glyph-name="bracketright" unicode="]" 
d="M612 -106q0 -26 -18.5 -45t-44.5 -19h-404q-30 0 -46.5 19t-16.5 45q0 24 17 42.5t46 18.5h326v1341h-326q-30 0 -46.5 19t-16.5 45q0 25 17 43t46 18h406q26 0 43.5 -18.5t17.5 -44.5v-1464z" />
    <glyph glyph-name="asciicircum" unicode="^" 
d="M868 1047q0 -22 -8 -35l-8 -15q-19 -34 -53 -34q-14 0 -31 10l-231 135l-232 -135q-17 -10 -31 -10q-34 0 -53 34l-8 15q-8 13 -8 35q0 31 33 51l268 145q13 8 31 8q12 0 28 -8l271 -145q32 -19 32 -51z" />
    <glyph glyph-name="underscore" unicode="_" 
d="M956 -131q0 -26 -16.5 -45t-46.5 -19h-711q-29 0 -46 18.5t-17 43.5v16q0 26 16.5 45t46.5 19h711q29 0 46 -18.5t17 -43.5v-16z" />
    <glyph glyph-name="quoteleft" unicode="&#x2018;" 
d="M705 1188q0 -31 -17 -41q-186 -111 -186 -295q0 -6 1 -17.5t1 -17.5q15 6 33 6q43 0 73.5 -29.5t30.5 -72.5q0 -44 -27 -73.5t-75 -29.5q-68 0 -115 61t-47 173q0 76 23.5 144.5t60.5 116t73 79t70 47.5q24 12 37 12q21 0 43 -18q21 -17 21 -45z" />
    <glyph glyph-name="a" unicode="a" 
d="M1075 63q0 -23 -19 -43t-44 -20h-84q-46 0 -71 2.5t-55.5 18t-51.5 45.5q-118 -78 -299 -78q-151 0 -244.5 81.5t-93.5 192.5q0 144 167.5 224t446.5 85v39q0 68 -76 117t-188 49q-47 0 -113 -8q2 -4 2 -14q0 -37 -26 -63.5t-64 -26.5t-64 25.5t-26 64.5q0 77 69.5 111
t221.5 34q78 0 142.5 -15t107 -40.5t74.5 -56t48.5 -64t24.5 -61.5t8 -52v-469q23 -16 144 -16q30 0 46.5 -18.5t16.5 -43.5zM727 231v220q-218 -7 -345.5 -59.5t-127.5 -129.5q0 -62 60 -105.5t153 -43.5q222 0 260 118z" />
    <glyph glyph-name="b" unicode="b" 
d="M1004 442q0 -126 -60 -231.5t-157.5 -164t-208.5 -58.5q-136 0 -238 104v-31q0 -29 -18.5 -46t-42.5 -17h-17q-26 0 -44.5 16.5t-18.5 46.5v1065h-111q-30 0 -46.5 19t-16.5 45q0 25 17 43t46 18h188q30 0 47 -17t17 -44v-395q111 100 260 100q107 0 200 -60t148.5 -165
t55.5 -228zM862 442q0 135 -80.5 231.5t-193.5 96.5q-91 0 -154.5 -55t-93.5 -142v-208q4 -37 20 -78t43 -81.5t71 -66.5t97 -26q113 0 202 94t89 235z" />
    <glyph glyph-name="c" unicode="c" 
d="M954 223q0 -13 -9 -38t-34 -60t-62.5 -64.5t-103 -51t-145.5 -21.5q-126 0 -230 62t-162 166t-58 226q0 57 15 117t51 122t88.5 109.5t136 78t184.5 30.5q173 0 242 -38.5t69 -108.5q0 -39 -26 -64.5t-64 -25.5t-64 25.5t-26 64.5q0 10 2 12q-64 10 -133 10
q-79 0 -141 -25.5t-97 -62.5t-58 -84.5t-30.5 -86.5t-7.5 -73q0 -138 94.5 -233.5t226.5 -95.5q154 0 203 123q19 45 57 45h25q25 0 41 -16.5t16 -41.5z" />
    <glyph glyph-name="d" unicode="d" 
d="M1057 63q0 -25 -17 -44t-47 -19h-196q-31 0 -47.5 18t-16.5 45v39q-110 -114 -258 -114q-164 0 -282.5 131.5t-118.5 320.5q0 192 124.5 323.5t295.5 131.5q135 0 239 -92v323h-112q-30 0 -47 19t-17 45q0 25 17.5 43t46.5 18h190q30 0 46.5 -17t16.5 -44v-1065h119
q29 0 46.5 -18.5t17.5 -43.5zM733 367v204q-20 85 -79.5 142t-151.5 57q-113 0 -200 -93.5t-87 -236.5q0 -136 79.5 -231.5t188.5 -95.5q54 0 101 24.5t77 63t48.5 81.5t23.5 85z" />
    <glyph glyph-name="e" unicode="e" 
d="M950 217q0 -17 -11.5 -43.5t-40 -59t-68.5 -60.5t-105 -47t-141 -19q-197 0 -334 135t-137 323q0 189 128.5 321t311.5 132q129 0 220 -61t134 -161t43 -228q0 -26 -18.5 -44t-44.5 -18h-629q24 -127 121.5 -200.5t218.5 -73.5q25 0 52 5t59 17.5t60 39t44 63.5
q6 18 23 30.5t36 12.5h15q26 0 44.5 -19t18.5 -45zM805 512q-7 75 -32 128.5t-62 81.5t-76 40t-82 12q-107 0 -189 -74.5t-104 -187.5h545z" />
    <glyph glyph-name="f" unicode="f" 
d="M909 1143q0 -37 -26 -63.5t-64 -26.5q-36 0 -61.5 24t-28.5 60q-18 2 -31 2q-80 0 -130 -38t-50 -85v-133h275q29 1 46 -18t17 -44t-16.5 -44t-46.5 -19h-275v-633h230q28 3 45.5 -16.5t17.5 -45.5q0 -25 -16.5 -44t-46.5 -19h-603q-30 0 -46.5 19t-16.5 44t17 43.5
t46 18.5h232v633h-230q-30 0 -46.5 19t-16.5 44t17 43.5t46 18.5h230v133q0 99 94.5 173.5t241.5 74.5q17 0 33.5 -1t48.5 -7.5t55 -18t41 -36t18 -58.5z" />
    <glyph glyph-name="g" unicode="g" 
d="M1044 788q0 -33 -23 -56t-56 -23q-32 0 -54.5 20.5t-25.5 50.5q-71 -5 -123 -35q53 -86 53 -178q0 -137 -98.5 -233t-239.5 -96q-45 0 -91 13t-65 22.5t-28 15.5q-12 -31 -12 -58q0 -13 3 -28t11 -34t26.5 -31.5t45.5 -12.5h229q103 0 182 -22t122 -53.5t70.5 -74
t35.5 -76.5t8 -67q0 -85 -64.5 -154t-173.5 -107t-239 -38t-239.5 39t-174 108t-64.5 152q0 14 1 27t9 45t22.5 60t45.5 62t74 60q-47 65 -47 147q0 81 41 140q-66 83 -66 194q0 133 98 230.5t240 97.5q107 0 199 -61q97 71 217 71q76 0 113.5 -36.5t37.5 -80.5zM674 567
q0 83 -57.5 144t-139.5 61q-80 0 -138 -60t-58 -147q0 -82 57.5 -143.5t138.5 -61.5t139 60.5t58 146.5zM895 -168q0 176 -299 176h-229q-84 0 -136.5 -53.5t-52.5 -122.5q0 -67 105 -120.5t254 -53.5q150 0 254 52.5t104 121.5z" />
    <glyph glyph-name="h" unicode="h" 
d="M1051 63q0 -25 -17 -44t-47 -19h-348q-30 0 -47 19t-17 44t17.5 43.5t46.5 18.5h96v493q0 75 -31 113.5t-108 38.5q-58 0 -116 -30t-99 -91t-41 -137v-387h111q29 0 46 -18.5t17 -43.5t-16.5 -44t-46.5 -19h-363q-30 0 -46.5 19t-16.5 44t17 43.5t46 18.5h111v1001h-111
q-30 0 -46.5 19t-16.5 45q0 25 17 43t46 18h188q30 0 47 -17t17 -44v-404q41 41 109 75t159 34q121 0 195 -68.5t74 -208.5v-493h110q29 0 46.5 -18.5t17.5 -43.5z" />
    <glyph glyph-name="i" unicode="i" 
d="M633 1149q0 -43 -30 -72.5t-73 -29.5t-72.5 29.5t-29.5 72.5t29.5 72.5t72.5 29.5t73 -29.5t30 -72.5zM928 63q0 -25 -17 -44t-47 -19h-641q-30 0 -46.5 19t-16.5 44t17 43.5t46 18.5h269v633h-252q-30 0 -47 19t-17 44t17.5 43.5t46.5 18.5h329q30 0 47 -17.5t17 -44.5
v-696h231q29 0 46.5 -18.5t17.5 -43.5z" />
    <glyph glyph-name="j" unicode="j" 
d="M754 1149q0 -43 -30 -72.5t-73 -29.5t-72.5 29.5t-29.5 72.5t29.5 72.5t72.5 29.5t73 -29.5t30 -72.5zM754 -106q0 -34 -9.5 -76.5t-36 -94t-66 -93t-107.5 -69.5t-152 -28q-283 0 -283 160q0 36 27 63t63 27q37 0 64 -26.5t27 -63.5q0 -15 -2 -23q48 -12 114 -12
q57 0 101 22.5t69 58.5t37 75.5t12 79.5v864h-280q-30 0 -47 19t-17 44t17.5 43.5t46.5 18.5h358q30 0 47 -17.5t17 -44.5v-927z" />
    <glyph glyph-name="k" unicode="k" 
d="M1034 63q0 -25 -16.5 -44t-46.5 -19h-279q-30 0 -46.5 19t-16.5 44t17 43.5t46 18.5h56l-244 317l-164 -151v-166h121q29 0 46 -18.5t17 -43.5t-16.5 -44t-46.5 -19h-355q-30 0 -46.5 19t-16.5 44t17 43.5t46 18.5h119v1001h-121q-30 0 -46.5 19t-16.5 45q0 25 17 43
t46 18h172q30 0 47 -17t17 -44v-744l332 312h-97q-30 0 -46.5 19t-16.5 44t17 43.5t46 18.5h351q29 0 46 -18.5t17 -43.5t-16.5 -44t-46.5 -19h-86l-252 -236l305 -397h78q29 0 46 -18.5t17 -43.5z" />
    <glyph glyph-name="l" unicode="l" 
d="M956 63q0 -25 -16.5 -44t-46.5 -19h-711q-30 0 -46.5 19t-16.5 44t17 43.5t46 18.5h285v1001h-285q-30 0 -46.5 19t-16.5 45q0 25 17 43t46 18h363q30 0 46.5 -17t16.5 -44v-1065h285q29 0 46 -18.5t17 -43.5z" />
    <glyph glyph-name="m" unicode="m" 
d="M1087 63q0 -25 -16.5 -44t-46.5 -19h-205q-30 0 -46.5 19t-16.5 44t17 43.5t46 18.5h39v496q0 149 -78 149q-72 0 -128 -71t-56 -187v-387h55q29 0 46.5 -18.5t17.5 -43.5t-17 -44t-47 -19h-209q-30 0 -46.5 19t-16.5 44t17 43.5t46 18.5h39v493q0 91 -20 121.5t-60 30.5
q-71 0 -124.5 -65.5t-53.5 -192.5v-387h51q29 0 46.5 -18.5t17.5 -43.5t-17 -44t-47 -19h-219q-30 0 -46.5 19t-16.5 44t17 43.5t46 18.5h54v633h-54q-30 1 -46.5 19.5t-16.5 43.5t17 43.5t46 18.5h105q29 0 46 -18.5t17 -43.5q37 34 89 54t102 20t91.5 -28.5t65.5 -78.5
q44 54 103.5 80.5t116.5 26.5q44 0 77.5 -18.5t53 -46.5t31.5 -66.5t16 -72.5t4 -70v-496h51q29 0 46 -18.5t17 -43.5z" />
    <glyph glyph-name="n" unicode="n" 
d="M1055 63q0 -25 -17 -44t-47 -19h-350q-30 0 -46.5 19t-16.5 44t17 43.5t46 18.5h96v493q0 76 -30 114t-109 38q-41 0 -85.5 -17.5t-83.5 -49.5t-64 -82t-25 -109v-387h115q29 0 46 -18.5t17 -43.5t-16.5 -44t-46.5 -19h-369q-30 0 -46.5 19t-16.5 44t17 43.5t46 18.5h113
v633h-113q-30 0 -46.5 19t-16.5 44t17 43.5t46 18.5h193q29 0 46 -17.5t17 -44.5v-37q111 111 266 111q126 0 198.5 -69.5t72.5 -207.5v-493h112q30 0 47 -18.5t17 -43.5z" />
    <glyph glyph-name="o" unicode="o" 
d="M956 442q0 -191 -124 -322.5t-295 -131.5q-172 0 -296 131t-124 323q0 191 123.5 324t296.5 133t296 -133t123 -324zM815 457q0 136 -82.5 226.5t-195.5 90.5t-196 -90.5t-83 -226.5q0 -143 82 -243.5t197 -100.5q114 0 196 100.5t82 243.5z" />
    <glyph glyph-name="p" unicode="p" 
d="M999 442q0 -95 -34.5 -180t-92 -144.5t-134.5 -94.5t-160 -35q-136 0 -238 104v-422h115q29 0 46 -18t17 -43q0 -26 -16.5 -45t-46.5 -19h-367q-30 0 -46.5 19t-16.5 45q0 25 17 43t46 18h111v1088h-113q-30 0 -46.5 19t-16.5 44t17 43.5t46 18.5h190q30 0 47 -17.5
t17 -44.5v-26q111 100 260 100q107 0 199 -60t146 -164.5t54 -228.5zM858 442q0 135 -78.5 231.5t-191.5 96.5q-92 0 -159 -58t-89 -139v-208q5 -37 21.5 -78t43.5 -81.5t71 -66.5t95 -26q113 0 200 93.5t87 235.5z" />
    <glyph glyph-name="q" unicode="q" 
d="M1108 -391q0 -26 -17 -45t-47 -19h-389q-30 0 -46.5 19t-16.5 45q0 25 17 43t46 18h121v441q-43 -48 -113 -85.5t-163 -37.5q-171 0 -294.5 131.5t-123.5 320.5q0 191 131.5 323t306.5 132q152 0 256 -113v5v4v5v5v5v6v5v7v7q0 29 18.5 46.5t43.5 17.5h16q26 0 45 -17
t19 -47v-1161h126q29 0 46.5 -18t17.5 -43zM776 367v155q-22 106 -83 177t-163 71q-124 0 -215.5 -95.5t-91.5 -234.5q0 -136 85 -231.5t200 -95.5q57 0 105.5 23.5t80.5 61.5t52.5 81t29.5 88z" />
    <glyph glyph-name="r" unicode="r" 
d="M997 766q0 -35 -25.5 -60.5t-60.5 -25.5t-60.5 25.5t-25.5 60.5q-91 0 -164 -32.5t-116.5 -85t-66.5 -114t-23 -124.5v-285h247q29 0 46.5 -18.5t17.5 -43.5t-17 -44t-47 -19h-571q-30 0 -46.5 19t-16.5 44t17 43.5t46 18.5h182v633h-182q-30 0 -46.5 19t-16.5 44
t17 43.5t46 18.5h260q30 0 47 -17.5t17 -44.5v-92q144 166 348 166q60 0 101.5 -14t60 -36.5t25.5 -41.5t7 -37z" />
    <glyph glyph-name="s" unicode="s" 
d="M938 256q0 -33 -9 -66t-35 -70.5t-67 -65.5t-112.5 -47t-163.5 -19q-161 0 -266 78l-25 -50q-16 -28 -51 -28q-26 0 -44 18.5t-18 44.5v236q0 29 18.5 46t43.5 17h16q23 0 41.5 -13t22.5 -38q15 -84 83.5 -135t178.5 -51q132 0 197 40.5t65 102.5q0 23 -10.5 42t-23 32
t-40 25.5t-43 18.5t-52.5 14t-47.5 10t-47.5 8q-59 9 -96.5 16t-90.5 20t-86 30.5t-65.5 43t-48 62t-15.5 81.5q0 27 7 54t32 62t65.5 61t114.5 44.5t171 18.5q129 0 219 -43l16 23q14 20 43 20q26 0 45 -18.5t19 -44.5v-181q0 -29 -18.5 -46t-43.5 -17h-16q-26 0 -45 16.5
t-19 46.5q0 119 -200 119q-136 0 -200.5 -34t-64.5 -81q0 -21 12.5 -38t37 -29.5t50.5 -22t63 -17t62.5 -11.5t62 -9.5t50.5 -7.5q24 -4 48 -9t66 -17.5t76 -32.5t67 -47.5t52 -69.5t19 -92z" />
    <glyph glyph-name="t" unicode="t" 
d="M920 272q0 -63 -19.5 -113t-50.5 -81.5t-73.5 -52t-85.5 -29t-89 -8.5q-58 0 -108.5 14.5t-91.5 44t-65 80t-24 117.5v514h-202q-30 0 -47 19t-17 44t17.5 43.5t46.5 18.5h202v190q0 29 18.5 46.5t43.5 17.5h16q26 0 45 -17t19 -47v-190h352q29 0 46 -18.5t17 -43.5
t-16.5 -44t-46.5 -19h-352v-514q0 -16 1 -28t9.5 -33.5t24 -35t47 -24t75.5 -10.5q27 0 51 5.5t52.5 20t45.5 49t17 84.5q0 29 18.5 46.5t43.5 17.5h16q26 0 45 -17t19 -47z" />
    <glyph glyph-name="u" unicode="u" 
d="M1051 63q0 -25 -17 -44t-47 -19h-190q-30 0 -47 19t-17 44q-108 -75 -244 -75q-128 0 -209 58.5t-81 164.5v547h-111q-30 0 -46.5 19t-16.5 44t17 43.5t46 18.5h188q30 0 47 -17.5t17 -44.5v-610q0 -98 162 -98q30 0 66 9t75 28.5t64.5 57t25.5 87.5v463h-110
q-30 0 -47 19t-17 44t17.5 43.5t46.5 18.5h188q30 0 46.5 -17.5t16.5 -44.5v-696h113q29 0 46.5 -18.5t17.5 -43.5z" />
    <glyph glyph-name="v" unicode="v" 
d="M1026 821q0 -25 -16.5 -44t-46.5 -19h-82l-242 -713q-6 -19 -28.5 -36t-43.5 -17h-57q-21 0 -46.5 18t-31.5 35l-239 713h-80q-30 0 -47 19t-17 44t17.5 43.5t46.5 18.5h278q29 0 46.5 -18.5t17.5 -43.5t-17 -44t-47 -19h-78l224 -660l223 660h-76q-30 0 -46.5 19
t-16.5 44t17 43.5t46 18.5h279q29 0 46 -18.5t17 -43.5z" />
    <glyph glyph-name="w" unicode="w" 
d="M1042 821q0 -25 -16.5 -44t-46.5 -19h-41l-127 -713q-4 -24 -23.5 -38.5t-42.5 -14.5h-40q-25 0 -47 16.5t-27 36.5q-76 227 -88 342q-11 -72 -49 -207l-39 -135q-7 -24 -26 -38.5t-44 -14.5h-41q-29 0 -52.5 14.5t-27.5 38.5l-127 713h-43q-30 0 -46.5 19t-16.5 44
t17 43.5t46 18.5h285q29 0 46 -18.5t17 -43.5t-16.5 -44t-46.5 -19h-125q92 -506 108 -619q18 71 58 203l39 131q7 24 25.5 38.5t37.5 14.5h41q19 0 38.5 -15t25.5 -38q71 -221 90 -334l104 619h-123q-30 0 -46.5 19t-16.5 44t17 43.5t46 18.5h281q29 0 46 -18.5t17 -43.5z
" />
    <glyph glyph-name="x" unicode="x" 
d="M1022 63q0 -25 -17 -44t-47 -19h-282q-30 0 -47 19t-17 44t17.5 43.5t46.5 18.5h45l-186 252l-181 -252h45q29 0 46.5 -18.5t17.5 -43.5t-17 -44t-47 -19h-282q-30 0 -47 19t-17 44t17.5 43.5t46.5 18.5h104l254 330l-242 303h-104q-30 0 -46.5 19t-16.5 44t17 43.5
t46 18.5h283q29 0 46 -18.5t17 -43.5t-16.5 -44t-46.5 -19h-37l160 -205l151 205h-39q-30 0 -46.5 19t-16.5 44t17 43.5t46 18.5h283q29 0 46 -18.5t17 -43.5t-16.5 -44t-46.5 -19h-103l-235 -303l264 -330h102q29 0 46.5 -18.5t17.5 -43.5z" />
    <glyph glyph-name="y" unicode="y" 
d="M84 -301q0 38 26.5 64t63.5 26t63.5 -26t26.5 -64q0 -21 -10 -41q60 0 111.5 47t76.5 119l60 176l-303 758h-88q-30 0 -47 19t-17 44t17.5 43.5t46.5 18.5h282q29 0 46.5 -18.5t17.5 -43.5t-17 -44t-47 -19h-69q206 -504 237 -619q18 72 113 345l94 274h-78
q-30 0 -46.5 19t-16.5 44t17 43.5t46 18.5h283q29 0 46 -18.5t17 -43.5t-16.5 -44t-46.5 -19h-84l-322 -934q-17 -49 -44.5 -97t-65.5 -93t-90.5 -73t-108.5 -28q-73 0 -123.5 50t-50.5 116z" />
    <glyph glyph-name="z" unicode="z" 
d="M975 61q0 -25 -19 -43t-45 -18h-786q-26 0 -45 16.5t-19 46.5v17q0 22 19 45l674 633h-512v-76q0 -29 -18.5 -46.5t-43.5 -17.5h-16q-26 0 -45 17t-19 47v137q0 26 19 45t45 19h747q26 0 45 -17t19 -47v-16q0 -25 -14 -39l-680 -639h553v98q0 29 18 46.5t43 17.5h16
q26 0 45 -17t19 -47v-162z" />
    <glyph glyph-name="braceleft" unicode="{" 
d="M956 -106q0 -26 -18.5 -45t-44.5 -19q-88 0 -160.5 12t-134.5 38t-96.5 74t-34.5 114v374q0 52 -67.5 87.5t-217.5 35.5q-26 0 -44.5 18t-18.5 44t18.5 44.5t44.5 18.5q148 0 216.5 36t68.5 87v375q0 233 426 233q26 0 44.5 -18.5t18.5 -44.5t-18.5 -44t-44.5 -18
q-285 0 -285 -108v-375q0 -117 -119 -188q40 -22 65.5 -45t36.5 -48t14 -43.5t3 -46.5v-374q0 -50 69 -81.5t216 -31.5q26 0 44.5 -18t18.5 -43z" />
    <glyph glyph-name="bar" unicode="|" 
d="M606 -106q0 -29 -18.5 -46.5t-42.5 -17.5h-17q-25 0 -44 16.5t-19 47.5v1464q0 29 18.5 46t42.5 17h17q25 0 44 -16.5t19 -46.5v-1464z" />
    <glyph glyph-name="braceright" unicode="}" 
d="M956 627q0 -26 -18.5 -44t-44.5 -18q-150 0 -217.5 -35.5t-67.5 -87.5v-374q0 -66 -34.5 -114t-96.5 -74t-134.5 -38t-160.5 -12q-26 0 -44.5 19t-18.5 45q0 25 18.5 43t44.5 18q147 0 216 31.5t69 81.5v374q0 28 3 46.5t14 43.5t36.5 48t65.5 45q-119 71 -119 188v375
q0 108 -285 108q-26 0 -44.5 18t-18.5 44t18.5 44.5t44.5 18.5q426 0 426 -233v-375q0 -51 68.5 -87t216.5 -36q26 0 44.5 -18.5t18.5 -44.5z" />
    <glyph glyph-name="asciitilde" unicode="~" 
d="M895 1186q0 -17 -18.5 -40t-35.5 -37t-46 -36q-90 -67 -160 -67q-32 0 -62 13.5t-42.5 24.5t-32.5 31q-14 13 -24 22.5t-20 15t-20 5.5q-47 0 -143 -90q-28 -22 -49 -22q-25 0 -44.5 20t-19.5 45q0 17 19 40t35.5 36.5t46.5 36.5q90 67 159 67q32 0 62 -13.5t42.5 -24.5
t32.5 -31q14 -13 24 -22.5t20 -15t20 -5.5q48 0 143 90q28 22 49 22q25 0 44.5 -20t19.5 -45z" />
    <glyph glyph-name="exclamdown" unicode="&#xa1;" 
d="M639 694q0 -43 -29.5 -72.5t-72.5 -29.5t-73 29.5t-30 72.5q0 44 30 73.5t73 29.5t72.5 -30t29.5 -73zM639 -360q0 -31 -9 -54t-21.5 -34.5t-28.5 -18.5t-25.5 -8.5t-17.5 -1.5t-18 1.5t-26 8.5t-28.5 18.5t-21.5 34.5t-9 54q0 100 21 716q1 30 19 47t42 17h39
q25 0 43.5 -16.5t19.5 -47.5q21 -528 21 -716z" />
    <glyph glyph-name="cent" unicode="&#xa2;" 
d="M954 451q0 -12 -8 -35t-30.5 -56t-55.5 -62t-90 -52.5t-127 -28.5v-262q0 -29 -18.5 -46.5t-42.5 -17.5q-26 0 -45 17t-19 47v266q-161 29 -264.5 156.5t-103.5 292.5q0 50 12 103t40 108.5t69.5 102t105 82.5t141.5 50v189q0 30 19 46.5t45 16.5q24 0 42.5 -17t18.5 -46
v-179q112 -2 179 -22.5t90.5 -50.5t23.5 -74q0 -38 -26 -64t-64 -26t-64 26t-26 64q0 10 2 12q-75 10 -115 10v-659q125 12 172 121q18 45 57 45h25q25 0 41 -16.5t16 -40.5zM518 354v633q-65 -18 -112.5 -58t-70.5 -89t-33.5 -91t-10.5 -79q0 -112 64 -198.5t163 -117.5z
" />
    <glyph glyph-name="sterling" unicode="&#xa3;" 
d="M1044 240q0 -97 -81 -174.5t-175 -77.5q-70 0 -171 31t-173 63q-36 -34 -94.5 -64t-111.5 -30q-69 0 -106.5 37.5t-37.5 78.5q0 69 61.5 107.5t141.5 38.5q24 0 78 -12q14 18 14 63v258h-104q-29 0 -46.5 19t-17.5 45q0 24 17.5 43.5t46.5 19.5h104v277q0 129 94 220
t209 91q119 0 198 -97t79 -225q0 -37 -26.5 -64.5t-63.5 -27.5t-64 27.5t-27 64.5q0 41 31 72q-14 58 -46.5 91.5t-78.5 33.5q-65 0 -114.5 -54t-49.5 -132v-277h154q30 0 47 -19t17 -44q0 -27 -16.5 -45.5t-47.5 -18.5h-154v-256q0 -42 -16 -104q75 -37 157 -60.5
t111 -23.5q45 0 82 37t37 88q0 29 18.5 47t43.5 18h18q25 0 44 -17.5t19 -47.5z" />
    <glyph glyph-name="yen" unicode="&#xa5;" 
d="M537 641q13 51 66 172.5t99 216.5l46 96v0h-1h-1h-1h-1h-1h-1h-1h-1h-1h-1h-2h-1h-1h-2h-1h-2h-1h-2h-9q-30 0 -47 19t-17 45q0 25 17.5 43t46.5 18h250q29 0 46 -18t17 -43q0 -26 -16.5 -45t-46.5 -19h-62l-229 -485h166q29 0 46 -18.5t17 -42.5q0 -26 -16.5 -45
t-46.5 -19h-226l-8 -16v-101h234q29 0 46 -18t17 -43q0 -26 -16.5 -45t-46.5 -19h-234v-149h70q29 0 46 -18.5t17 -43.5t-16.5 -44t-46.5 -19h-281q-30 0 -46.5 19t-16.5 44t17 43.5t46 18.5h70v149h-238q-30 0 -46.5 19t-16.5 45q0 25 17 43t46 18h238v101l-8 16h-230
q-30 0 -46.5 19t-16.5 45q0 24 17 42.5t46 18.5h170l-231 485h-62q-30 0 -46.5 19t-16.5 45q0 25 17 43t46 18h250q29 0 46.5 -18t17.5 -43q0 -26 -17 -45t-47 -19h-30q183 -373 211 -485z" />
    <glyph glyph-name="florin" unicode="&#x192;" 
d="M1075 1202q0 -2 -1 -6t-1 -6l-2 -16q-3 -22 -18.5 -38t-40.5 -16q-2 0 -7.5 1t-7.5 1q-70 15 -86 15q-77 0 -107 -32t-38 -83l-23 -139h152q29 0 46 -18.5t17 -43.5v-16q0 -26 -16.5 -45t-46.5 -19h-176q1 0 -52 -319l-53 -320q-47 -295 -360 -295h-74q-29 0 -46 18.5
t-17 43.5v16q0 26 16.5 45t46.5 19h74q192 0 221 178q12 69 29 171t44.5 272.5t26.5 170.5h-122q-29 0 -46.5 18.5t-17.5 43.5v16q0 26 17 45t47 19h147l27 161q6 38 13.5 65.5t27 61.5t48 55.5t79 36.5t116.5 15q12 0 111 -16q25 -5 39 -22t14 -38z" />
    <glyph glyph-name="section" unicode="&#xa7;" 
d="M905 -166q0 -91 -56 -164t-138.5 -110t-169.5 -37q-146 0 -241 76.5t-95 197.5q0 29 18.5 46.5t42.5 17.5h17q25 0 44 -17t19 -47q0 -60 52 -104.5t143 -44.5q96 0 159.5 59t63.5 127q0 80 -56 133.5t-169 93.5q-48 18 -73 27.5t-70.5 30t-71 38t-58.5 45.5t-50.5 57.5
t-30.5 70t-13 86.5q0 97 44.5 156.5t129.5 113.5q-93 59 -133.5 115t-40.5 151q0 62 22 115.5t58.5 91t84.5 64t99.5 39t104.5 12.5q150 0 240.5 -77.5t90.5 -195.5q0 -29 -18 -46t-43 -17h-16q-26 0 -45 16.5t-19 46.5q0 55 -49.5 101.5t-140.5 46.5q-53 0 -103.5 -20.5
t-87.5 -67t-37 -109.5q0 -148 285 -237q137 -43 222 -127t85 -203q0 -91 -43.5 -153.5t-126.5 -118.5q86 -59 128 -119.5t42 -159.5zM764 385q0 40 -21.5 77.5t-52.5 62.5t-66.5 44t-64 28t-43.5 9q-77 0 -140 -59.5t-63 -130.5q0 -41 21 -79t51.5 -63t65.5 -44t63.5 -28
t44.5 -9q86 0 145.5 61.5t59.5 130.5z" />
    <glyph glyph-name="currency" unicode="&#xa4;" 
d="M981 252q0 -26 -19.5 -46t-43.5 -20q-22 0 -41 19l-129 127q-97 -66 -209 -66q-108 0 -205 64l-127 -127q-18 -19 -43 -19q-26 0 -46 19.5t-20 44.5q0 22 19 41l127 129q-66 95 -66 209q0 110 64 204q1 0 -63 63l-64 64q-19 19 -19 43q0 26 19.5 46t44.5 20q22 0 41 -18
l129 -127q94 65 209 65q114 0 204 -65l127 129q19 18 43 18q26 0 46 -19.5t20 -43.5q0 -23 -18 -41l-127 -129q65 -97 65 -209t-65 -205l129 -127q18 -18 18 -43zM758 627q0 91 -64.5 155t-154.5 64q-91 0 -155.5 -64t-64.5 -155t64.5 -155t155.5 -64q90 0 154.5 64
t64.5 155z" />
    <glyph glyph-name="quotesingle" unicode="'" 
d="M635 1161l-29 -428q-4 -61 -63 -61q-31 0 -46.5 17.5t-17.5 43.5l-26 428q-5 59 24.5 86t65.5 27t66 -27t26 -86z" />
    <glyph glyph-name="quotedblleft" unicode="&#x201c;" 
d="M352 946q0 174 152 291q18 14 39 14q24 0 42.5 -18t18.5 -43q0 -34 -16 -45q-111 -82 -111 -178h10q43 0 73 -30.5t30 -72.5t-30 -72t-73 -30q-61 0 -98 52.5t-37 131.5zM770 946q0 174 152 291q18 14 39 14q24 0 42.5 -18t18.5 -43q0 -34 -16 -45q-111 -82 -111 -178h10
q43 0 73 -30.5t30 -72.5t-30 -72t-73 -30q-61 0 -98 52.5t-37 131.5z" />
    <glyph glyph-name="guillemotleft" unicode="&#xab;" 
d="M913 186q0 -25 -18.5 -45t-42.5 -20q-27 0 -45 18l-272 271q-23 21 -23 45q0 22 23 45l272 270q18 18 45 18q25 0 43 -19t18 -44t-20 -45l-227 -225l227 -226q20 -20 20 -43zM557 186q0 -24 -18.5 -44.5t-42.5 -20.5q-27 0 -45 18l-273 271q-22 22 -22 45q0 22 22 45
l273 270q18 18 45 18q24 0 42.5 -19t18.5 -44t-20 -45l-228 -225l228 -226q20 -20 20 -43z" />
    <glyph glyph-name="guilsinglleft" unicode="&#x2039;" 
d="M836 190q0 -25 -18.5 -46t-43.5 -21q-13 0 -35 10l-471 268q-39 24 -39 56q0 30 39 51l475 268q22 10 33 8q26 0 43 -19t17 -44q0 -34 -31 -51l-381 -215l381 -215q31 -18 31 -50z" />
    <glyph glyph-name="guilsinglright" unicode="&#x203a;" 
d="M887 457q0 -33 -39 -56l-520 -270q-22 -10 -35 -10q-25 0 -43.5 21t-18.5 46q0 32 31 50l430 217l-430 215q-31 17 -31 51q0 25 17 44t43 19q11 2 33 -8l524 -268q39 -21 39 -51z" />
    <glyph glyph-name="endash" unicode="&#x2013;" 
d="M1075 545q0 -26 -16.5 -45t-46.5 -19h-949q-30 0 -46.5 19t-16.5 45q0 24 17 42.5t46 18.5h949q29 0 46 -18.5t17 -42.5z" />
    <glyph glyph-name="dagger" unicode="&#x2020;" 
d="M938 881q0 -26 -16.5 -45t-47.5 -19h-47q-40 0 -74.5 1.5t-77 4.5t-75.5 4q10 -240 10 -268v-973q0 -29 -18 -46t-43 -17h-17q-25 0 -44 16.5t-19 46.5v973q0 28 10 268q-36 -1 -108 -5.5t-123 -4.5h-47q-29 0 -46.5 18.5t-17.5 43.5v16q0 25 17 44t47 19h47
q51 0 123 -4.5t108 -5.5q-1 32 -4 73.5t-4.5 74.5t-1.5 71v41q0 29 18.5 46.5t42.5 17.5h17q25 0 44 -17t19 -47v-41q0 -72 -10 -219q31 1 74.5 4t78 4.5t74.5 1.5h47q29 0 46.5 -18t17.5 -43v-16z" />
    <glyph glyph-name="daggerdbl" unicode="&#x2021;" 
d="M938 829q0 -25 -16.5 -44t-47.5 -19h-47q-40 0 -74.5 1.5t-77 4.5t-75.5 4q1 -32 4 -81.5t4.5 -89t1.5 -83.5v-55q0 -29 -18 -46.5t-43 -17.5h-17q-25 0 -44 17t-19 47v53q0 45 1.5 84.5t4.5 90t4 81.5q-36 -1 -108 -5.5t-123 -4.5h-47q-29 0 -46.5 18.5t-17.5 42.5v17
q0 25 17 44t47 19h47q51 0 123 -4.5t108 -5.5q-10 225 -10 256v55q0 29 18.5 46.5t42.5 17.5h17q25 0 44 -17t19 -47v-55q0 -109 -10 -256q31 1 74.5 4t78 4.5t74.5 1.5h47q29 0 46.5 -18t17.5 -43v-17zM938 -47q0 -26 -16.5 -45t-47.5 -19h-47q-52 0 -127 5t-100 6
q1 -32 4 -82t4.5 -89t1.5 -83v-56q0 -29 -18 -46t-43 -17h-17q-25 0 -44 16.5t-19 46.5v54q0 45 1.5 84.5t4.5 89.5t4 82q-41 -2 -111 -6.5t-120 -4.5h-47q-29 0 -46.5 18.5t-17.5 43.5v16q0 26 17 45t47 19h47q40 0 72 -1.5t76 -4.5t83 -5q-10 227 -10 256v56q0 29 18.5 46
t42.5 17h17q26 0 44.5 -16.5t18.5 -46.5v-56q0 -108 -10 -256q198 11 227 11h47q29 0 46.5 -18.5t17.5 -43.5v-16z" />
    <glyph glyph-name="periodcentered" unicode="&#xb7;" 
d="M664 467q0 -54 -37 -90.5t-90 -36.5q-54 0 -90.5 36.5t-36.5 90.5t36.5 91.5t90.5 37.5q53 0 90 -37.5t37 -91.5z" />
    <glyph glyph-name="paragraph" unicode="&#xb6;" 
d="M924 1174q0 -26 -17 -45t-47 -19h-84v-1501q0 -29 -18.5 -46.5t-42.5 -17.5h-17q-25 0 -44 17t-19 47v1501h-127v-1501q0 -29 -18.5 -46.5t-43.5 -17.5h-16q-25 0 -44 17t-19 47v729q-39 0 -87 18.5t-97.5 57.5t-90 91t-66.5 126.5t-26 156.5q0 129 61.5 237t159 167
t205.5 59h434q29 0 46.5 -18t17.5 -43v-16z" />
    <glyph glyph-name="bullet" unicode="&#x2022;" 
d="M956 627q0 -174 -122.5 -296t-296.5 -122t-296 122t-122 296q0 173 122 295t296 122q173 0 296 -122t123 -295z" />
    <glyph glyph-name="quotesinglbase" unicode="&#x201a;" 
d="M698 -29q0 -76 -23.5 -144.5t-60.5 -116t-73 -79t-70 -47.5q-24 -12 -37 -12q-20 0 -43 18q-20 18 -20 45q0 31 16 41q186 110 186 295q0 7 -1 18t-1 17q-15 -6 -32 -6q-44 0 -74.5 29.5t-30.5 72.5q0 44 27 73.5t76 29.5q68 0 114.5 -61t46.5 -173z" />
    <glyph glyph-name="quotedblbase" unicode="&#x201e;" 
d="M723 20q0 -173 -152 -290q-17 -15 -39 -15q-24 0 -42.5 18.5t-18.5 43.5q0 34 16 45q111 82 111 178h-10q-43 0 -73 30t-30 72t30 72.5t73 30.5q61 0 98 -53t37 -132zM305 20q0 -174 -151 -290q-18 -15 -39 -15q-25 0 -43.5 18.5t-18.5 43.5q0 35 17 45q110 82 110 178
h-10q-42 0 -72 30t-30 72t30 72.5t72 30.5q61 0 98 -53t37 -132z" />
    <glyph glyph-name="quotedblright" unicode="&#x201d;" 
d="M723 1067q0 -172 -152 -291q-17 -14 -39 -14q-24 0 -42.5 18.5t-18.5 42.5q0 34 16 45q111 83 111 179h-10q-43 0 -73 30t-30 72t30 72t73 30q61 0 98 -52.5t37 -131.5zM305 1067q0 -173 -151 -291q-19 -14 -39 -14q-25 0 -43.5 18.5t-18.5 42.5q0 35 17 45
q110 84 110 179h-10q-42 0 -72 30t-30 72t30 72t72 30q61 0 98 -52.5t37 -131.5z" />
    <glyph glyph-name="guillemotright" unicode="&#xbb;" 
d="M967 455q0 -21 -29 -47l-322 -273q-19 -16 -36 -16q-26 0 -47 20t-21 45q0 26 23 45l266 226l-266 227q-23 19 -23 47q0 25 19 44.5t44 19.5q21 0 41 -17l322 -274q29 -27 29 -47zM612 455q0 -22 -28 -47l-322 -273q-19 -16 -37 -16q-26 0 -46.5 20t-20.5 45q0 26 22 45
l266 226l-266 227q-22 19 -22 47q0 25 18.5 44.5t44.5 19.5q21 0 41 -17l322 -274q28 -26 28 -47z" />
    <glyph glyph-name="ellipsis" unicode="&#x2026;" 
d="M1022 127q0 -54 -36.5 -90.5t-90.5 -36.5t-90.5 36.5t-36.5 90.5t36.5 91.5t90.5 37.5t90.5 -37.5t36.5 -91.5zM664 127q0 -54 -37 -90.5t-90 -36.5q-54 0 -90.5 36.5t-36.5 90.5t36.5 91.5t90.5 37.5q53 0 90 -37.5t37 -91.5zM305 127q0 -54 -36.5 -90.5t-90.5 -36.5
t-90.5 36.5t-36.5 90.5t36.5 91.5t90.5 37.5t90.5 -37.5t36.5 -91.5z" />
    <glyph glyph-name="perthousand" unicode="&#x2030;" 
d="M389 1147q0 -117 -51.5 -195t-126.5 -78q-74 0 -126 79t-52 196q0 116 51.5 194t126.5 78t126.5 -78t51.5 -196zM664 1352q0 -17 -5 -27l-501 -1446q-19 -47 -66 -47q-29 0 -51.5 19t-22.5 49q-3 12 5 28l501 1446q17 47 68 47q29 0 50.5 -19.5t21.5 -49.5zM1036 102
q0 -116 -51.5 -194t-126.5 -78q-74 0 -126 78.5t-52 195.5t51.5 195t126.5 78q74 0 126 -78t52 -197zM649 102q0 -116 -51.5 -194t-126.5 -78q-74 0 -126 78.5t-52 195.5t51.5 195t126.5 78q74 0 126 -78t52 -197zM274 1147q0 61 -20.5 104t-42.5 43t-43 -43t-21 -104
t21.5 -103.5t42.5 -42.5t42 42.5t21 103.5zM922 102q0 61 -21 104.5t-43 43.5t-42.5 -43.5t-20.5 -104.5t21 -103t42 -42t42.5 42t21.5 103zM535 102q0 61 -21 104.5t-43 43.5t-42.5 -43.5t-20.5 -104.5t21 -103t42 -42t42.5 42t21.5 103z" />
    <glyph glyph-name="questiondown" unicode="&#xbf;" 
d="M610 684q0 -43 -29.5 -72.5t-72.5 -29.5t-72.5 29.5t-29.5 72.5t29.5 72.5t72.5 29.5t72.5 -29.5t29.5 -72.5zM946 -221q0 -124 -109 -190t-323 -66q-89 0 -158.5 16t-111.5 41t-69.5 59t-37.5 67.5t-10 70.5q0 71 37.5 123.5t85.5 79.5q85 47 130.5 131.5t45.5 152.5v82
q0 29 18.5 46.5t42.5 17.5h39q26 0 45 -17t19 -47v-82q0 -79 -44 -161.5t-96.5 -136t-99.5 -79.5q-32 -17 -57 -45.5t-25 -64.5q0 -53 56.5 -91t189.5 -38q78 0 158 16.5t114 54.5q-20 28 -20 60q0 38 26 64t64 26t64 -26t26 -64z" />
    <glyph glyph-name="grave" unicode="`" 
d="M674 1042q0 -16 -6 -28l-6 -15q-18 -36 -56 -36q-15 -3 -31 6l-294 149q-37 18 -37 56q0 16 6 28l8 15q21 34 53 34q21 0 31 -6l297 -149q35 -18 35 -54z" />
    <glyph glyph-name="acute" unicode="&#xb4;" 
d="M831 1174q0 -38 -36 -56l-295 -149q-16 -9 -31 -6q-39 0 -55 36l-6 15q-7 11 -7 28q0 35 35 54l297 149q10 6 31 6q32 0 53 -34l8 -15q6 -12 6 -28z" />
    <glyph glyph-name="circumflex" unicode="&#x2c6;" 
d="M868 1047q0 -22 -8 -35l-8 -15q-19 -34 -53 -34q-14 0 -31 10l-231 135l-232 -135q-17 -10 -31 -10q-34 0 -53 34l-8 15q-8 13 -8 35q0 31 33 51l268 145q13 8 31 8q12 0 28 -8l271 -145q32 -19 32 -51z" />
    <glyph glyph-name="tilde" unicode="&#x2dc;" 
d="M895 1186q0 -17 -18.5 -40t-35.5 -37t-46 -36q-90 -67 -160 -67q-32 0 -62 13.5t-42.5 24.5t-32.5 31q-14 13 -24 22.5t-20 15t-20 5.5q-47 0 -143 -90q-28 -22 -49 -22q-25 0 -44.5 20t-19.5 45q0 17 19 40t35.5 36.5t46.5 36.5q90 67 159 67q32 0 62 -13.5t42.5 -24.5
t32.5 -31q14 -13 24 -22.5t20 -15t20 -5.5q48 0 143 90q28 22 49 22q25 0 44.5 -20t19.5 -45z" />
    <glyph glyph-name="macron" unicode="&#xaf;" 
d="M926 1116q0 -27 -16.5 -45t-47.5 -18h-649q-31 0 -47 18.5t-16 46.5q0 27 16.5 45.5t46.5 18.5h649q31 0 47.5 -19t16.5 -47z" />
    <glyph glyph-name="dieresis" unicode="&#xa8;" 
d="M846 1149q0 -41 -30.5 -71.5t-72.5 -30.5q-41 0 -71.5 30.5t-30.5 71.5t30.5 71.5t71.5 30.5q42 0 72.5 -30.5t30.5 -71.5zM432 1149q0 -41 -30.5 -71.5t-71.5 -30.5q-42 0 -72.5 30.5t-30.5 71.5t30.5 71.5t72.5 30.5q41 0 71.5 -30.5t30.5 -71.5z" />
    <glyph glyph-name="cedilla" unicode="&#xb8;" 
d="M877 -211q0 -47 -17 -82t-52 -57t-75 -36.5t-101 -21t-113 -8.5t-126 -2q-30 0 -46.5 19t-16.5 45q0 25 16.5 43t46.5 18q186 0 264 15t78 67q0 32 -38.5 55t-100.5 23q-26 0 -45 16.5t-19 46.5v109q0 29 18.5 46t43.5 17h16q24 0 44 -18.5t20 -44.5v-55
q98 -19 150.5 -69.5t52.5 -125.5z" />
    <glyph glyph-name="emdash" unicode="&#x2014;" 
d="M1075 545q0 -26 -16.5 -45t-46.5 -19h-949q-30 0 -46.5 19t-16.5 45q0 24 17 42.5t46 18.5h949q29 0 46 -18.5t17 -42.5z" />
    <glyph glyph-name="AE" unicode="&#xc6;" 
d="M1022 63q0 -29 -18.5 -46t-42.5 -17h-439q-30 0 -46.5 19t-16.5 44t17 43.5t46 18.5v0h-1v0v0h-1v0v0h1v0v0h1h1h1h1h1h1h1h1h1h1h1h9v250h-228l-51 -250h4h4h5h4h4h5h7q29 0 46 -18.5t17 -43.5t-16.5 -44t-46.5 -19h-184q-30 0 -47 19t-17 44t17.5 43.5t46.5 18.5h34
l203 1001h-5h-4h-6h-5q-30 0 -47 19t-17 45q0 25 17.5 43t46.5 18h614q26 0 45 -16.5t19 -46.5v-197q0 -23 -17.5 -40t-40.5 -17q-22 0 -39.5 17t-17.5 40v135h-236v-415h252q29 0 46.5 -18.5t17.5 -43.5t-17 -44t-47 -19h-252v-461h252v170q0 23 17.5 40t40.5 17t40 -17
t17 -40v-232zM541 500v626h-76l-127 -626h203z" />
    <glyph glyph-name="ordfeminine" unicode="&#xaa;" 
d="M860 774q0 -14 -11.5 -26.5t-27.5 -12.5h-49q-41 0 -64.5 7t-41.5 32q-76 -47 -181 -47q-90 0 -146 49t-56 117q0 86 100.5 134t267.5 50v25q0 40 -45 69t-112 29q-32 0 -68 -4v-8q0 -23 -15.5 -39t-37.5 -16q-23 0 -39.5 16t-16.5 39q0 45 42.5 65.5t134.5 20.5
q68 0 118.5 -19t75.5 -48t36 -55.5t11 -49.5v-283q15 -8 86 -8q19 0 29 -10.5t10 -26.5zM889 612q0 -12 -7 -21t-22 -9h-577q-15 0 -22 9t-7 21t7.5 20.5t21.5 8.5h577q14 0 21.5 -8.5t7.5 -20.5zM651 874v132q-130 -4 -207 -36t-77 -77q0 -37 36.5 -63.5t92.5 -26.5
q132 0 155 71z" />
    <glyph glyph-name="Oslash" unicode="&#xd8;" 
d="M956 625q0 -119 -2 -198.5t-11 -152t-20.5 -115.5t-36.5 -79.5t-52 -54t-74.5 -30t-97 -15.5t-125.5 -3q-39 0 -142 5l-37 -113q-14 -45 -59 -45q-14 0 -20 2q-18 5 -30.5 21t-12.5 36q0 9 4 21l32 104q-96 40 -124.5 167.5t-28.5 449.5q0 121 2 203.5t12 155t20.5 115.5
t36.5 79t52 52t74.5 27.5t96 14t124.5 2.5q98 0 139 -4l37 112q14 45 61 45q10 0 17 -2q18 -5 31.5 -20.5t13.5 -36.5q0 -9 -5 -22l-30 -101q96 -38 125.5 -166.5t29.5 -453.5zM842 625q0 238 -17.5 344t-66.5 143l-324 -1008q29 -2 103 -2q135 0 181 16q65 23 91 100
q33 96 33 393v14zM637 1147q-29 2 -100 2q-55 0 -88.5 -2t-69 -10.5t-54 -22t-38 -41.5t-27.5 -63.5t-15.5 -93.5t-9.5 -125.5t-2 -165.5q0 -237 16.5 -342t65.5 -144z" />
    <glyph glyph-name="OE" unicode="&#x152;" 
d="M1028 63q0 -29 -18.5 -46t-42.5 -17h-359q-47 0 -88 -8q-69 -15 -121 -15q-174 0 -243 56q-66 53 -85 196q-12 96 -12 398q0 306 13 402q19 140 86 192q69 53 241 53q54 0 113 -12q49 -11 96 -11h342q26 0 45 -16.5t19 -46.5v-197q0 -23 -17.5 -40t-40.5 -17
q-22 0 -39.5 17t-17.5 40v135h-248v-415h269q29 0 46 -18.5t17 -43.5q0 -26 -16.5 -44.5t-46.5 -18.5h-269v-461h262v170q0 23 17.5 40t40.5 17t40 -17t17 -40v-232zM537 389v473q0 127 -10.5 185t-38.5 80t-89 22q-43 0 -74.5 -6t-56 -19t-40 -33.5t-27 -49.5t-16.5 -67.5
t-8 -88t-3 -109.5v-133q1 -273 13 -353q17 -119 78 -158q46 -30 138 -30q37 0 59 7t38.5 23t23.5 51.5t10 81.5t3 124z" />
    <glyph glyph-name="ordmasculine" unicode="&#xba;" 
d="M788 1001q0 -115 -74.5 -194.5t-176.5 -79.5q-103 0 -177.5 79t-74.5 195q0 115 74 194t178 79t177.5 -79t73.5 -194zM825 612q0 -15 -10 -27t-29 -12h-501q-18 0 -28.5 11t-10.5 26q0 16 10 27.5t29 11.5h501q18 0 28.5 -11t10.5 -26zM705 1010q0 81 -50 135.5
t-118 54.5q-66 0 -116 -54.5t-50 -135.5q0 -86 49 -146.5t117 -60.5q69 0 118.5 60.5t49.5 146.5z" />
    <glyph glyph-name="ae" unicode="&#xe6;" 
d="M1032 223q0 -19 -13 -54.5t-38.5 -77.5t-74.5 -72.5t-109 -30.5q-124 0 -230 141q-39 -66 -113 -103.5t-153 -37.5q-104 0 -168.5 78t-64.5 176q0 123 116 193.5t295 72.5v92q0 76 -43 125t-121 49q-23 0 -55 -8q2 -6 2 -21q0 -38 -26.5 -64t-63.5 -26q-40 0 -65 25
t-25 70q0 27 11.5 51.5t37 47.5t75 36.5t116.5 13.5q154 0 235 -145q43 74 101.5 109.5t117.5 35.5q115 0 185.5 -116.5t70.5 -333.5q0 -25 -18 -43.5t-43 -18.5h-373q11 -124 74 -199t135 -75q34 0 66.5 33t41.5 77q14 58 58 58q25 0 42 -17.5t17 -40.5zM915 510
q-7 137 -46.5 200.5t-92.5 63.5q-64 0 -116.5 -81t-61.5 -183h317zM479 285v102q-128 -5 -212.5 -42.5t-84.5 -100.5q0 -51 36 -91t95 -40q70 0 118 39t48 133z" />
    <glyph glyph-name="oslash" unicode="&#xf8;" 
d="M981 444q0 -188 -130 -322t-314 -134q-91 0 -172 35l-160 -281q-17 -33 -53 -33q-20 0 -33 8q-31 18 -31 54q0 16 8 32l162 285q-78 64 -122 157t-44 199q0 188 130 322.5t315 134.5q89 0 168 -35l155 273q20 35 55 35q11 0 29 -9q33 -17 33 -53q0 -16 -8 -33
q-158 -274 -158 -276q79 -62 124.5 -156.5t45.5 -202.5zM866 444q0 76 -31 141.5t-85 110.5l-324 -565q56 -18 111 -18q135 0 232 96.5t97 234.5zM643 758q-50 18 -106 18q-136 0 -233 -97t-97 -235q0 -147 112 -249z" />
    <glyph glyph-name="oe" unicode="&#x153;" 
d="M1034 221q0 -18 -11.5 -52.5t-35 -77t-69 -73t-103.5 -30.5q-83 0 -144 55t-96 127q-16 -32 -37 -61.5t-50.5 -58t-69 -45.5t-82.5 -17q-123 0 -210 130.5t-87 325.5q0 196 87 325.5t210 129.5q45 0 86.5 -18.5t71 -48t48.5 -56t33 -53.5q86 176 220 176q107 0 173 -113
t66 -313q0 -50 -15 -68t-67 -18h-317q10 -117 65.5 -195.5t122.5 -78.5q34 0 59 30.5t38 85.5q2 10 5.5 19.5t17.5 21t34 11.5q23 0 40 -16.5t17 -43.5zM918 510q-7 140 -43.5 202t-79.5 62q-53 0 -100.5 -78t-57.5 -186h281zM518 457q0 138 -56 227.5t-126 89.5t-126 -89
t-56 -228q0 -143 56 -243.5t126 -100.5t126 100.5t56 243.5z" />
    <glyph glyph-name="germandbls" unicode="&#xdf;" 
d="M1010 358q0 -162 -111.5 -266t-259.5 -104q-98 0 -151.5 46.5t-53.5 108.5q0 34 25 58t59 22t57.5 -26.5t22.5 -57.5q0 -3 -1 -9t-1 -9q16 -8 43 -8q89 0 159 67t70 178q0 37 -10 84.5t-34.5 103t-59 101t-90.5 77.5t-123 34q-30 1 -47 20t-17 43q0 26 16.5 43.5
t47.5 18.5q131 7 195.5 58t64.5 97q0 38 -63.5 69.5t-155.5 31.5q-106 0 -164.5 -32.5t-58.5 -64.5v-979q0 -25 -17 -44t-47 -19h-209q-30 0 -46.5 19t-16.5 44t17 43.5t46 18.5h131v633h-133q-30 0 -46.5 19t-16.5 44t17 43.5t46 18.5h133v159q0 87 95.5 154.5t269.5 67.5
q150 0 255 -64t105 -162q0 -137 -172 -229q70 -49 119 -113t71.5 -128.5t31 -114t8.5 -95.5z" />
    <glyph glyph-name="Zcaron" unicode="&#x17d;" 
d="M987 63q0 -29 -18.5 -46t-42.5 -17h-766q-25 0 -43.5 17t-18.5 46v19q0 21 11 37l684 1007h-529v-129q0 -29 -18.5 -46t-42.5 -17h-17q-25 0 -44 16.5t-19 46.5v191q0 29 18.5 46t42.5 17h729q26 0 45 -16.5t19 -46.5v-14q0 -21 -12 -39l-684 -1010h565v168q0 29 18.5 46
t42.5 17h17q25 0 44 -16.5t19 -46.5v-230zM883 1458q0 -16 -11.5 -32t-31.5 -23l-262 -94q-25 -9 -29 -9t-31 9l-264 96q-20 7 -30.5 24.5t-10.5 36.5q0 7 4 19l6 16q6 18 21 29.5t35 11.5q11 0 26 -6l244 -98l242 98q8 4 24 4q41 0 55 -39l7 -16q6 -12 6 -27z" />
    <glyph glyph-name="zcaron" unicode="&#x17e;" 
d="M975 61q0 -25 -19 -43t-45 -18h-786q-26 0 -45 16.5t-19 46.5v17q0 22 19 45l674 633h-512v-76q0 -29 -18.5 -46.5t-43.5 -17.5h-16q-26 0 -45 17t-19 47v137q0 26 19 45t45 19h747q26 0 45 -17t19 -47v-16q0 -25 -14 -39l-680 -639h553v98q0 29 18 46.5t43 17.5h16
q26 0 45 -17t19 -47v-162zM872 1083q0 -16 -11.5 -32t-31.5 -23l-262 -94q-20 -8 -28 -8q-7 0 -31 8l-264 96q-20 7 -30.5 25t-10.5 37q0 6 4 18l6 16q6 18 21 29.5t34 11.5q12 0 27 -6l244 -98l241 98q8 4 25 4q41 0 55 -39l6 -16q6 -12 6 -27z" />
    <glyph glyph-name="Scaron" unicode="&#x160;" 
d="M961 340q0 -94 -46.5 -176.5t-134.5 -134.5t-198 -52q-105 0 -199 26.5t-135 68.5l-23 -62q-11 -33 -55 -33q-26 0 -45 19t-19 45v305q0 29 18.5 46.5t43.5 17.5h16q63 0 68 -64q10 -119 86.5 -181.5t243.5 -62.5q110 0 177.5 70.5t67.5 157.5q0 85 -55 145.5t-143 81.5
l-258 59q-116 27 -190.5 120.5t-74.5 201.5q0 135 108 235.5t273 100.5q172 0 283 -94l23 61q11 33 55 33q26 0 44.5 -19t18.5 -45v-305q0 -29 -18 -46t-43 -17h-16q-53 0 -68 63q-5 23 -6.5 30t-9 32.5t-13.5 37t-19 34.5t-26.5 35t-35 29t-45.5 25t-57 14.5t-71 6.5
q-106 0 -174.5 -60t-68.5 -141q0 -71 52.5 -125t131.5 -73l258 -60q46 -10 92.5 -36.5t89.5 -68.5t70 -106t27 -139zM844 1458q0 -16 -11.5 -32t-31.5 -23l-262 -94q-25 -9 -29 -9q-2 0 -31 9l-264 96q-20 7 -30.5 24.5t-10.5 36.5q0 7 4 19l6 16q16 41 56 41q11 0 26 -6
l244 -98l242 98q8 4 24 4q41 0 55 -39l7 -16q6 -12 6 -27z" />
    <glyph glyph-name="trademark" unicode="&#x2122;" 
d="M1055 657q0 -13 -8.5 -22.5t-24.5 -9.5h-102q-15 0 -23 9.5t-8 22.5q0 12 8 21.5t23 9.5h22v492q-6 -36 -53 -180l-47 -144q-3 -9 -14.5 -15.5t-22.5 -6.5t-22.5 6.5t-14.5 15.5q-90 266 -100 324v-492h22q15 0 23 -9.5t8 -21.5q0 -13 -8 -22.5t-23 -9.5h-102
q-16 0 -24.5 9.5t-8.5 22.5q0 12 9 21.5t24 9.5h22v500h-22q-16 0 -24.5 9.5t-8.5 23.5q0 11 9 20.5t24 9.5h80q28 0 39 -32q86 -258 98 -316q9 36 53 176l45 140q10 32 39 32h80q14 0 23.5 -9.5t9.5 -20.5q0 -14 -8.5 -23.5t-24.5 -9.5h-23v-500h23q14 0 23.5 -9.5
t9.5 -21.5zM510 1124q0 -15 -9 -23.5t-22 -8.5h-8q-12 0 -21.5 8.5t-9.5 23.5v64h-135v-500h62q14 0 23 -9.5t9 -21.5q0 -13 -8.5 -22.5t-23.5 -9.5h-195q-16 0 -24.5 9.5t-8.5 22.5q0 12 9.5 21.5t23.5 9.5h61v500h-135v-64q0 -14 -9 -23t-21 -9h-9q-12 0 -21 8.5t-9 23.5
v95q0 15 8.5 23.5t21.5 8.5h420q12 0 21.5 -8.5t9.5 -23.5v-95z" />
    <glyph glyph-name="scaron" unicode="&#x161;" 
d="M938 256q0 -33 -9 -66t-35 -70.5t-67 -65.5t-112.5 -47t-163.5 -19q-161 0 -266 78l-25 -50q-16 -28 -51 -28q-26 0 -44 18.5t-18 44.5v236q0 29 18.5 46t43.5 17h16q23 0 41.5 -13t22.5 -38q15 -84 83.5 -135t178.5 -51q132 0 197 40.5t65 102.5q0 23 -10.5 42t-23 32
t-40 25.5t-43 18.5t-52.5 14t-47.5 10t-47.5 8q-59 9 -96.5 16t-90.5 20t-86 30.5t-65.5 43t-48 62t-15.5 81.5q0 27 7 54t32 62t65.5 61t114.5 44.5t171 18.5q129 0 219 -43l16 23q14 20 43 20q26 0 45 -18.5t19 -44.5v-181q0 -29 -18.5 -46t-43.5 -17h-16q-26 0 -45 16.5
t-19 46.5q0 119 -200 119q-136 0 -200.5 -34t-64.5 -81q0 -21 12.5 -38t37 -29.5t50.5 -22t63 -17t62.5 -11.5t62 -9.5t50.5 -7.5q24 -4 48 -9t66 -17.5t76 -32.5t67 -47.5t52 -69.5t19 -92zM848 1083q0 -16 -11.5 -32t-31.5 -23l-262 -94q-22 -8 -29 -8q-5 0 -31 8l-264 96
q-20 7 -30.5 25t-10.5 37q0 6 4 18l6 16q16 41 56 41q11 0 26 -6l244 -98l242 98q8 4 24 4q41 0 56 -39l6 -16q6 -12 6 -27z" />
    <glyph glyph-name="Ydieresis" unicode="&#x178;" 
d="M1030 1190q0 -26 -16.5 -45t-46.5 -19h-62l-297 -626v-375h70q29 0 46 -18.5t17 -43.5t-16.5 -44t-46.5 -19h-281q-30 0 -46.5 19t-16.5 44t17 43.5t46 18.5h70v375l-299 626h-62q-30 0 -46.5 19t-16.5 45q0 25 17 43t46 18h250q29 0 46.5 -18t17.5 -43q0 -26 -17 -45
t-47 -19h-30q183 -373 211 -485q13 51 66 172.5t99 216.5l46 96v0h-1h-1h-1h-1h-1h-1h-1h-1h-1h-1h-2h-1h-1h-2h-1h-2h-1h-2h-9q-30 0 -47 19t-17 45q0 25 17.5 43t46.5 18h250q29 0 46 -18t17 -43zM846 1518q0 -42 -30.5 -72.5t-72.5 -30.5q-41 0 -71.5 30.5t-30.5 72.5
q0 41 30.5 71.5t71.5 30.5q42 0 72.5 -30.5t30.5 -71.5zM432 1518q0 -42 -30.5 -72.5t-71.5 -30.5q-42 0 -72.5 30.5t-30.5 72.5q0 41 30.5 71.5t72.5 30.5q41 0 71.5 -30.5t30.5 -71.5z" />
    <glyph glyph-name="brokenbar" unicode="&#xa6;" 
d="M606 592q0 -29 -18.5 -46.5t-42.5 -17.5h-17q-25 0 -44 17t-19 47v766q0 29 18.5 46t42.5 17h17q25 0 44 -16.5t19 -46.5v-766zM606 -106q0 -29 -18.5 -46.5t-42.5 -17.5h-17q-25 0 -44 16.5t-19 47.5v391q0 29 18.5 46t42.5 17h17q25 0 44 -16.5t19 -46.5v-391z" />
    <glyph glyph-name="copyright" unicode="&#xa9;" 
d="M1075 537q0 -102 -27 -197.5t-77 -172.5t-116 -134.5t-148 -89t-170 -31.5q-146 0 -269.5 83t-195.5 227t-72 315q0 170 72 314t195.5 227t269.5 83q109 0 209 -49t172 -132.5t114.5 -199.5t42.5 -243zM999 537q0 146 -62 270.5t-168.5 197t-231.5 72.5t-231 -72.5
t-168 -197t-62 -270.5t62 -270.5t168 -197.5t231 -73t231.5 73t168.5 197.5t62 270.5zM770 362q0 -89 -72.5 -155t-173.5 -66q-121 0 -209 111.5t-88 277.5q0 165 88 277.5t209 112.5q85 0 154 -58l27 45q7 13 28 13q15 0 26 -12t11 -27v-195q0 -17 -11 -27t-26 -10h-8
q-37 0 -41 37q-10 69 -54 113.5t-100 44.5q-89 0 -153 -89t-64 -225q0 -134 65 -223.5t152 -89.5q50 0 102 38.5t52 106.5q0 18 11 28.5t26 10.5h10q16 0 27.5 -10t11.5 -29z" />
    <glyph glyph-name="logicalnot" unicode="&#xac;" 
d="M979 133q0 -29 -18.5 -46t-42.5 -17h-17q-26 0 -44.5 16.5t-18.5 46.5v461h-684q-29 0 -46.5 18.5t-17.5 42.5v17q0 25 17 44t47 19h761q29 0 46.5 -18t17.5 -43v-541z" />
    <glyph glyph-name="registered" unicode="&#xae;" 
d="M1075 537q0 -102 -27 -197.5t-77 -172.5t-116 -134.5t-148 -89t-170 -31.5q-146 0 -269.5 83t-195.5 227t-72 315q0 170 72 314t195.5 227t269.5 83q109 0 209 -49t172 -132.5t114.5 -199.5t42.5 -243zM999 537q0 146 -62 270.5t-168.5 197t-231.5 72.5t-231 -72.5
t-168 -197t-62 -270.5t62 -270.5t168 -197.5t231 -73t231.5 73t168.5 197.5t62 270.5zM862 283q0 -47 -27 -87t-77 -40q-59 0 -89 44t-30 107v107q0 37 -40 65.5t-87 28.5h-96v-264h41q17 0 28 -11.5t11 -25.5q0 -15 -10.5 -26t-28.5 -11h-168q-18 0 -27.5 11t-9.5 26
t9.5 26t27.5 11h43v602h-43q-18 0 -27.5 11t-9.5 26t9.5 26t27.5 11h237q97 0 163.5 -62.5t66.5 -144.5q0 -45 -24.5 -92t-80.5 -78q72 -57 72 -129v-107q0 -76 35 -76q20 0 20 52q0 17 11 26.5t26 9.5h10q15 0 26 -9.5t11 -26.5zM672 713q0 48 -45.5 90.5t-110.5 42.5h-100
v-264h98q71 0 114.5 41t43.5 90z" />
    <glyph glyph-name="degree" unicode="&#xb0;" 
d="M854 956q0 -131 -92.5 -224t-224.5 -93t-225 93t-93 224t93 224.5t225 93.5t224.5 -93.5t92.5 -224.5zM735 956q0 83 -57.5 141t-140.5 58t-141 -58t-58 -141t58 -140.5t141 -57.5t140.5 58t57.5 140z" />
    <glyph glyph-name="plusminus" unicode="&#xb1;" 
d="M997 229q0 -25 -16.5 -44t-46.5 -19h-793q-29 0 -46 18.5t-17 42.5v17q0 25 16.5 44t46.5 19h326v250h-326q-29 0 -46 18.5t-17 42.5v17q0 26 16.5 44.5t46.5 18.5h326v326q0 29 18.5 46t42.5 17h17q25 0 44 -16.5t19 -46.5v-326h326q29 0 46 -18t17 -43v-16
q0 -26 -16.5 -45t-46.5 -19h-326v-250h326q29 0 46 -18.5t17 -42.5v-17z" />
    <glyph glyph-name="twosuperior" unicode="&#xb2;" 
d="M815 829q0 -26 -18.5 -42.5t-40.5 -16.5h-439q-24 0 -40.5 17t-16.5 40q0 29 14 41l199 160q42 32 80.5 65t68.5 62t48 63.5t18 69.5q0 67 -50 102t-124 35q-40 0 -71.5 -17t-45.5 -48q13 -14 13 -39q0 -28 -23 -50t-53 -22q-32 0 -54 22t-22 50q0 86 72 150.5t190 64.5
q128 0 211.5 -67t83.5 -181q0 -56 -29.5 -111t-66.5 -92.5t-98 -87.5l-146 -114h213q0 26 17 41.5t40 15.5h9q24 0 42.5 -15t18.5 -42v-54z" />
    <glyph glyph-name="threesuperior" unicode="&#xb3;" 
d="M825 995q0 -92 -80 -164.5t-206 -72.5q-124 0 -207.5 54.5t-83.5 139.5q0 31 22 51.5t54 20.5t54.5 -20.5t22.5 -51.5q0 -19 -10 -37q23 -22 66 -33.5t82 -11.5q70 0 114.5 38t44.5 87q0 46 -40.5 84.5t-110.5 38.5h-80q-24 0 -40.5 17.5t-16.5 42.5q0 24 15 37.5
t40 15.5l80 6q51 5 85 38t34 79q0 32 -36 51.5t-89 19.5q-77 0 -109 -18q6 -12 6 -27q0 -29 -23 -50t-55 -21q-31 0 -52 20t-21 51q0 74 64 115t190 41q112 0 183 -54t71 -128q0 -100 -86 -168q54 -31 86 -82t32 -109z" />
    <glyph glyph-name="onesuperior" unicode="&#xb9;" 
d="M762 829q0 -24 -15.5 -41.5t-44.5 -17.5h-329q-28 0 -44 17.5t-16 41.5t16 42t44 18h100v428q-53 -35 -111 -35q-23 0 -40 17.5t-17 37.5q0 24 15 39.5t40 16.5q83 9 129 114q16 29 54 29q24 0 41.5 -16.5t17.5 -38.5v-592h100q29 0 44.5 -18t15.5 -42z" />
    <glyph glyph-name="onequarter" unicode="&#xbc;" 
d="M457 829q0 -24 -15.5 -41.5t-44.5 -17.5h-329q-28 0 -44 17.5t-16 41.5t16 42t44 18h100v428q-53 -35 -111 -35q-23 0 -40 17.5t-17 37.5q0 24 14.5 39.5t40.5 16.5q83 9 129 114q5 11 20 20t34 9q24 0 41.5 -16.5t17.5 -38.5v-592h100q29 0 44.5 -18t15.5 -42z
M1075 1198q0 -26 -20 -43l-953 -870q-18 -17 -43 -17q-24 0 -41.5 18t-17.5 42t20 43l953 870q19 16 43 16t41.5 -17.5t17.5 -41.5zM1075 258q0 -23 -15.5 -40t-43.5 -17h-82v-86h63q28 0 45 -17t17 -39t-16.5 -39.5t-45.5 -17.5h-243q-27 0 -42.5 17.5t-15.5 39.5t15.5 39
t42.5 17h69v86h-299q-23 0 -40 15.5t-17 41.5v23q0 24 10 32l287 432q12 23 49 23h61q24 0 42 -15t18 -42v-400h82q24 0 41.5 -16t17.5 -37zM823 311v314l-211 -314h211z" />
    <glyph glyph-name="onehalf" unicode="&#xbd;" 
d="M457 829q0 -24 -15.5 -41.5t-44.5 -17.5h-329q-28 0 -44 17.5t-16 41.5t16 42t44 18h100v428q-53 -35 -111 -35q-23 0 -40 17.5t-17 37.5q0 24 14.5 39.5t40.5 16.5q83 9 129 114q5 11 20 20t34 9q24 0 41.5 -16.5t17.5 -38.5v-592h100q29 0 44.5 -18t15.5 -42z
M1075 1198q0 -26 -20 -43l-953 -870q-18 -17 -43 -17q-24 0 -41.5 18t-17.5 42t20 43l953 870q19 16 43 16t41.5 -17.5t17.5 -41.5zM1075 59q0 -26 -18.5 -42.5t-40.5 -16.5h-438q-24 0 -41 17t-17 40q0 29 15 41l198 160q42 32 80.5 65t68.5 62t48 63.5t18 69.5
q0 67 -50 102t-124 35q-40 0 -71.5 -17t-45.5 -48q13 -14 13 -39q0 -28 -23 -50t-53 -22q-32 0 -54 22t-22 50q0 86 72 150.5t190 64.5q128 0 211.5 -67t83.5 -181q0 -56 -29.5 -111t-66.5 -92.5t-98 -87.5l-146 -114h213q0 26 17.5 41.5t40.5 15.5h8q24 0 42.5 -15
t18.5 -42v-54z" />
    <glyph glyph-name="threequarters" unicode="&#xbe;" 
d="M578 995q0 -92 -80.5 -164.5t-206.5 -72.5q-124 0 -207.5 54.5t-83.5 139.5q0 31 22 51.5t54 20.5t55 -20.5t23 -51.5q0 -20 -11 -37q23 -22 66 -33.5t82 -11.5q70 0 115 38t45 87q0 46 -41 84.5t-111 38.5h-80q-24 0 -40.5 17.5t-16.5 42.5q0 24 15 37.5t40 15.5l80 6
q51 5 85 38t34 79q0 32 -36 51.5t-89 19.5q-77 0 -109 -18q6 -12 6 -27q0 -29 -22.5 -50t-54.5 -21q-31 0 -52.5 20.5t-21.5 50.5q0 74 64 115t190 41q112 0 183 -54t71 -128q0 -100 -86 -168q54 -31 86.5 -82t32.5 -109zM1075 1198q0 -26 -20 -43l-953 -870
q-18 -17 -43 -17q-24 0 -41.5 18t-17.5 42t20 43l953 870q19 16 43 16t41.5 -17.5t17.5 -41.5zM1075 258q0 -23 -15.5 -40t-43.5 -17h-82v-86h63q28 0 45 -17t17 -39t-16.5 -39.5t-45.5 -17.5h-243q-27 0 -42.5 17.5t-15.5 39.5t15.5 39t42.5 17h69v86h-299q-23 0 -40 15.5
t-17 41.5v23q0 24 10 32l287 432q12 23 49 23h61q24 0 42 -15t18 -42v-400h82q24 0 41.5 -16t17.5 -37zM823 311v314l-211 -314h211z" />
    <glyph glyph-name="Agrave" unicode="&#xc0;" 
d="M1018 63q0 -25 -17 -44t-47 -19h-260q-30 0 -46.5 19t-16.5 44t17 43.5t46 18.5h56l-50 213h-325l-51 -213h55q29 0 46 -18.5t17 -43.5t-16.5 -44t-46.5 -19h-260q-30 0 -47 19t-17 44t17.5 43.5t46.5 18.5h59l252 1089q11 54 72 54h69q58 0 72 -54l252 -1089h59
q29 0 46.5 -18.5t17.5 -43.5zM672 463q-129 549 -135 663q-1 -51 -35 -216.5t-68 -305.5l-33 -141h271zM674 1411q0 -15 -6 -29l-6 -14q-18 -37 -56 -37q-15 -3 -31 6l-294 150q-37 18 -37 55q0 17 6 29l8 14q21 35 53 35q21 0 31 -6l297 -150q35 -17 35 -53z" />
    <glyph glyph-name="Aacute" unicode="&#xc1;" 
d="M1018 63q0 -25 -17 -44t-47 -19h-260q-30 0 -46.5 19t-16.5 44t17 43.5t46 18.5h56l-50 213h-325l-51 -213h55q29 0 46 -18.5t17 -43.5t-16.5 -44t-46.5 -19h-260q-30 0 -47 19t-17 44t17.5 43.5t46.5 18.5h59l252 1089q11 54 72 54h69q58 0 72 -54l252 -1089h59
q29 0 46.5 -18.5t17.5 -43.5zM672 463q-129 549 -135 663q-1 -51 -35 -216.5t-68 -305.5l-33 -141h271zM831 1542q0 -37 -36 -55l-295 -150q-16 -9 -31 -6q-38 0 -55 37l-6 14q-7 13 -7 29q0 35 35 53l297 150q10 6 31 6q32 0 53 -35l8 -14q6 -12 6 -29z" />
    <glyph glyph-name="Acircumflex" unicode="&#xc2;" 
d="M1018 63q0 -25 -17 -44t-47 -19h-260q-30 0 -46.5 19t-16.5 44t17 43.5t46 18.5h56l-50 213h-325l-51 -213h55q29 0 46 -18.5t17 -43.5t-16.5 -44t-46.5 -19h-260q-30 0 -47 19t-17 44t17.5 43.5t46.5 18.5h59l252 1089q11 54 72 54h69q58 0 72 -54l252 -1089h59
q29 0 46.5 -18.5t17.5 -43.5zM672 463q-129 549 -135 663q-1 -51 -35 -216.5t-68 -305.5l-33 -141h271zM868 1415q0 -20 -8 -35l-8 -14q-19 -35 -53 -35q-14 0 -31 10l-231 136l-232 -136q-17 -10 -31 -10q-34 0 -53 35l-8 14q-8 15 -8 35q0 33 33 51l268 146q13 8 31 8
q12 0 28 -8l271 -146q32 -17 32 -51z" />
    <glyph glyph-name="Atilde" unicode="&#xc3;" 
d="M1018 63q0 -25 -17 -44t-47 -19h-260q-30 0 -46.5 19t-16.5 44t17 43.5t46 18.5h56l-50 213h-325l-51 -213h55q29 0 46 -18.5t17 -43.5t-16.5 -44t-46.5 -19h-260q-30 0 -47 19t-17 44t17.5 43.5t46.5 18.5h59l252 1089q11 54 72 54h69q58 0 72 -54l252 -1089h59
q29 0 46.5 -18.5t17.5 -43.5zM672 463q-129 549 -135 663q-1 -51 -35 -216.5t-68 -305.5l-33 -141h271zM895 1554q0 -17 -18.5 -39.5t-35.5 -36.5t-46 -36q-91 -68 -160 -68q-32 0 -61.5 13.5t-43 25t-32.5 31.5q-18 18 -34 30.5t-30 12.5q-47 0 -143 -90q-27 -23 -49 -23
q-25 0 -44.5 20.5t-19.5 45.5q0 38 101 112q91 68 159 68q32 0 61.5 -13.5t43 -25t32.5 -31.5q18 -18 34 -30.5t30 -12.5q47 0 143 90q27 23 49 23q25 0 44.5 -20.5t19.5 -45.5z" />
    <glyph glyph-name="Adieresis" unicode="&#xc4;" 
d="M1018 63q0 -25 -17 -44t-47 -19h-260q-30 0 -46.5 19t-16.5 44t17 43.5t46 18.5h56l-50 213h-325l-51 -213h55q29 0 46 -18.5t17 -43.5t-16.5 -44t-46.5 -19h-260q-30 0 -47 19t-17 44t17.5 43.5t46.5 18.5h59l252 1089q11 54 72 54h69q58 0 72 -54l252 -1089h59
q29 0 46.5 -18.5t17.5 -43.5zM672 463q-129 549 -135 663q-1 -51 -35 -216.5t-68 -305.5l-33 -141h271zM846 1518q0 -42 -30.5 -72.5t-72.5 -30.5q-41 0 -71.5 30.5t-30.5 72.5q0 41 30.5 71.5t71.5 30.5q42 0 72.5 -30.5t30.5 -71.5zM432 1518q0 -42 -30.5 -72.5
t-71.5 -30.5q-42 0 -72.5 30.5t-30.5 72.5q0 41 30.5 71.5t72.5 30.5q41 0 71.5 -30.5t30.5 -71.5z" />
    <glyph glyph-name="Aring" unicode="&#xc5;" 
d="M1018 63q0 -25 -17 -44t-47 -19h-260q-30 0 -46.5 19t-16.5 44t17 43.5t46 18.5h56l-50 213h-325l-51 -213h55q29 0 46 -18.5t17 -43.5t-16.5 -44t-46.5 -19h-260q-30 0 -47 19t-17 44t17.5 43.5t46.5 18.5h59l252 1089q11 54 72 54h69q58 0 72 -54l252 -1089h59
q29 0 46.5 -18.5t17.5 -43.5zM672 463q-129 549 -135 663q-1 -51 -35 -216.5t-68 -305.5l-33 -141h271zM702 1513q0 -49 -47.5 -85.5t-117.5 -36.5q-71 0 -118.5 36.5t-47.5 85.5t47.5 86t118.5 37q70 0 117.5 -37t47.5 -86zM618 1513q0 25 -24.5 42.5t-56.5 17.5t-57 -17.5
t-25 -42.5t25 -42t57 -17t56.5 17t24.5 42z" />
    <glyph glyph-name="Ccedilla" unicode="&#xc7;" 
d="M987 887q0 -29 -18.5 -46.5t-42.5 -17.5h-17q-27 0 -44.5 13t-22.5 51q-17 114 -90 188t-166 74q-148 0 -255.5 -149t-107.5 -373q0 -149 52 -271t134.5 -188t176.5 -66q35 0 77.5 15t84 43.5t69 77.5t27.5 108q0 29 18 46.5t43 17.5h17q25 0 44 -17t19 -47
q0 -150 -120 -259.5t-290 -109.5q-132 0 -245 83.5t-180.5 233.5t-67.5 333q0 136 40 257.5t107 206t157.5 134t188.5 49.5q144 0 259 -96l43 75q11 21 47 21q26 0 44.5 -19t18.5 -45v-323zM850 -211q0 -47 -17 -82t-52 -57t-74.5 -36.5t-100.5 -21t-113 -8.5t-126 -2
q-30 0 -47 19t-17 45q0 25 17 43t47 18q186 0 264 15t78 67q0 32 -39 55t-101 23q-25 0 -44 16.5t-19 46.5v109q0 29 18.5 46t42.5 17h17q23 0 43 -19t20 -44v-55q98 -19 150.5 -69.5t52.5 -125.5z" />
    <glyph glyph-name="Egrave" unicode="&#xc8;" 
d="M1028 63q0 -29 -18.5 -46t-42.5 -17h-850q-30 0 -47 19t-17 44t17.5 43.5t46.5 18.5h82v1001h-82q-30 0 -47 19t-17 45q0 25 17.5 43t46.5 18h803q25 0 44 -16.5t19 -46.5v-191q0 -29 -18.5 -46t-42.5 -17h-17q-26 0 -44.5 16.5t-18.5 46.5v129h-502v-415h270v53
q0 29 18.5 46t43.5 17h16q26 0 45 -16.5t19 -46.5v-234q0 -29 -18.5 -46t-43.5 -17h-16q-26 0 -45 16.5t-19 46.5v56h-270v-461h547v162q0 29 18.5 46t42.5 17h17q25 0 44 -16.5t19 -46.5v-224zM674 1411q0 -15 -6 -29l-6 -14q-18 -37 -56 -37q-15 -3 -31 6l-294 150
q-37 18 -37 55q0 17 6 29l8 14q21 35 53 35q21 0 31 -6l297 -150q35 -17 35 -53z" />
    <glyph glyph-name="Eacute" unicode="&#xc9;" 
d="M1028 63q0 -29 -18.5 -46t-42.5 -17h-850q-30 0 -47 19t-17 44t17.5 43.5t46.5 18.5h82v1001h-82q-30 0 -47 19t-17 45q0 25 17.5 43t46.5 18h803q25 0 44 -16.5t19 -46.5v-191q0 -29 -18.5 -46t-42.5 -17h-17q-26 0 -44.5 16.5t-18.5 46.5v129h-502v-415h270v53
q0 29 18.5 46t43.5 17h16q26 0 45 -16.5t19 -46.5v-234q0 -29 -18.5 -46t-43.5 -17h-16q-26 0 -45 16.5t-19 46.5v56h-270v-461h547v162q0 29 18.5 46t42.5 17h17q25 0 44 -16.5t19 -46.5v-224zM813 1542q0 -37 -37 -55l-295 -150q-15 -9 -30 -6q-37 0 -56 37l-6 14
q-6 14 -6 29q0 36 35 53l297 150q10 6 30 6q31 0 54 -35l8 -14q6 -12 6 -29z" />
    <glyph glyph-name="Ecircumflex" unicode="&#xca;" 
d="M1028 63q0 -29 -18.5 -46t-42.5 -17h-850q-30 0 -47 19t-17 44t17.5 43.5t46.5 18.5h82v1001h-82q-30 0 -47 19t-17 45q0 25 17.5 43t46.5 18h803q25 0 44 -16.5t19 -46.5v-191q0 -29 -18.5 -46t-42.5 -17h-17q-26 0 -44.5 16.5t-18.5 46.5v129h-502v-415h270v53
q0 29 18.5 46t43.5 17h16q26 0 45 -16.5t19 -46.5v-234q0 -29 -18.5 -46t-43.5 -17h-16q-26 0 -45 16.5t-19 46.5v56h-270v-461h547v162q0 29 18.5 46t42.5 17h17q25 0 44 -16.5t19 -46.5v-224zM850 1415q0 -20 -8 -35l-8 -14q-21 -35 -54 -35q-13 0 -30 10l-232 136
l-231 -136q-18 -10 -31 -10q-34 0 -53 35l-8 14q-9 14 -9 35q0 32 33 51l268 146q15 8 31 8q13 0 29 -8l270 -146q33 -17 33 -51z" />
    <glyph glyph-name="Edieresis" unicode="&#xcb;" 
d="M1028 63q0 -29 -18.5 -46t-42.5 -17h-850q-30 0 -47 19t-17 44t17.5 43.5t46.5 18.5h82v1001h-82q-30 0 -47 19t-17 45q0 25 17.5 43t46.5 18h803q25 0 44 -16.5t19 -46.5v-191q0 -29 -18.5 -46t-42.5 -17h-17q-26 0 -44.5 16.5t-18.5 46.5v129h-502v-415h270v53
q0 29 18.5 46t43.5 17h16q26 0 45 -16.5t19 -46.5v-234q0 -29 -18.5 -46t-43.5 -17h-16q-26 0 -45 16.5t-19 46.5v56h-270v-461h547v162q0 29 18.5 46t42.5 17h17q25 0 44 -16.5t19 -46.5v-224zM827 1518q0 -42 -30.5 -72.5t-71.5 -30.5t-71.5 30.5t-30.5 72.5
q0 41 30.5 71.5t71.5 30.5t71.5 -30.5t30.5 -71.5zM414 1518q0 -42 -30.5 -72.5t-72.5 -30.5q-41 0 -71.5 30.5t-30.5 72.5q0 41 30.5 71.5t71.5 30.5q42 0 72.5 -30.5t30.5 -71.5z" />
    <glyph glyph-name="Igrave" unicode="&#xcc;" 
d="M913 63q0 -25 -16.5 -44t-46.5 -19h-627q-30 0 -46.5 19t-16.5 44t17 43.5t46 18.5h244v1001h-244q-30 0 -46.5 19t-16.5 45q0 25 17 43t46 18h627q29 0 46 -18t17 -43q0 -26 -16.5 -45t-46.5 -19h-242v-1001h242q29 0 46 -18.5t17 -43.5zM674 1411q0 -15 -6 -29l-6 -14
q-18 -37 -56 -37q-15 -3 -31 6l-294 150q-37 18 -37 55q0 17 6 29l8 14q21 35 53 35q21 0 31 -6l297 -150q35 -17 35 -53z" />
    <glyph glyph-name="Iacute" unicode="&#xcd;" 
d="M913 63q0 -25 -16.5 -44t-46.5 -19h-627q-30 0 -46.5 19t-16.5 44t17 43.5t46 18.5h244v1001h-244q-30 0 -46.5 19t-16.5 45q0 25 17 43t46 18h627q29 0 46 -18t17 -43q0 -26 -16.5 -45t-46.5 -19h-242v-1001h242q29 0 46 -18.5t17 -43.5zM831 1542q0 -37 -36 -55
l-295 -150q-16 -9 -31 -6q-38 0 -55 37l-6 14q-7 13 -7 29q0 35 35 53l297 150q10 6 31 6q32 0 53 -35l8 -14q6 -12 6 -29z" />
    <glyph glyph-name="Icircumflex" unicode="&#xce;" 
d="M913 63q0 -25 -16.5 -44t-46.5 -19h-627q-30 0 -46.5 19t-16.5 44t17 43.5t46 18.5h244v1001h-244q-30 0 -46.5 19t-16.5 45q0 25 17 43t46 18h627q29 0 46 -18t17 -43q0 -26 -16.5 -45t-46.5 -19h-242v-1001h242q29 0 46 -18.5t17 -43.5zM868 1415q0 -20 -8 -35l-8 -14
q-19 -35 -53 -35q-14 0 -31 10l-231 136l-232 -136q-17 -10 -31 -10q-34 0 -53 35l-8 14q-8 15 -8 35q0 33 33 51l268 146q13 8 31 8q12 0 28 -8l271 -146q32 -17 32 -51z" />
    <glyph glyph-name="Idieresis" unicode="&#xcf;" 
d="M913 63q0 -25 -16.5 -44t-46.5 -19h-627q-30 0 -46.5 19t-16.5 44t17 43.5t46 18.5h244v1001h-244q-30 0 -46.5 19t-16.5 45q0 25 17 43t46 18h627q29 0 46 -18t17 -43q0 -26 -16.5 -45t-46.5 -19h-242v-1001h242q29 0 46 -18.5t17 -43.5zM846 1518q0 -42 -30.5 -72.5
t-72.5 -30.5q-41 0 -71.5 30.5t-30.5 72.5q0 41 30.5 71.5t71.5 30.5q42 0 72.5 -30.5t30.5 -71.5zM432 1518q0 -42 -30.5 -72.5t-71.5 -30.5q-42 0 -72.5 30.5t-30.5 72.5q0 41 30.5 71.5t72.5 30.5q41 0 71.5 -30.5t30.5 -71.5z" />
    <glyph glyph-name="Eth" unicode="&#xd0;" 
d="M999 616q0 -134 -37 -251t-97.5 -196t-139.5 -124t-162 -45h-461q-29 0 -46 18.5t-17 42.5q0 26 16.5 45t46.5 19h68v428h-68q-30 0 -46.5 19t-16.5 44t17 43.5t46 18.5h68v448h-68q-29 0 -46 18.5t-17 43.5q0 26 16.5 44.5t46.5 18.5h461q115 0 215 -81t160.5 -228
t60.5 -326zM858 616q0 122 -40 238t-116 194t-167 78h-224v-448h224q29 0 46 -18.5t17 -43.5t-16.5 -44t-46.5 -19h-224v-428h224q89 0 164.5 71.5t117 184.5t41.5 235z" />
    <glyph glyph-name="Ntilde" unicode="&#xd1;" 
d="M1014 1190q0 -26 -17 -45t-47 -19h-69v-1063q0 -25 -17 -44t-47 -19h-51q-26 0 -48 18.5t-32 44.5q-344 934 -381 1047v-985h70q29 0 46 -18.5t17 -43.5t-16.5 -44t-46.5 -19h-254q-30 0 -47 19t-17 44t17.5 43.5t46.5 18.5h69v1001h-69q-30 0 -47 19t-17 45
q0 25 17.5 43t46.5 18h184q58 0 80 -63q344 -932 381 -1047v985h-70q-30 0 -46.5 19t-16.5 45q0 25 17 43t46 18h254q29 0 46.5 -18t17.5 -43zM895 1554q0 -17 -18.5 -39.5t-35.5 -36.5t-46 -36q-91 -68 -160 -68q-32 0 -61.5 13.5t-43 25t-32.5 31.5q-18 18 -34 30.5
t-30 12.5q-47 0 -143 -90q-27 -23 -49 -23q-25 0 -44.5 20.5t-19.5 45.5q0 38 101 112q91 68 159 68q32 0 61.5 -13.5t43 -25t32.5 -31.5q18 -18 34 -30.5t30 -12.5q47 0 143 90q27 23 49 23q25 0 44.5 -20.5t19.5 -45.5z" />
    <glyph glyph-name="Ograve" unicode="&#xd2;" 
d="M952 625q0 -119 -2 -198.5t-11 -152t-20.5 -115.5t-36.5 -79.5t-52 -54t-74.5 -30t-97 -15.5t-126.5 -3q-76 0 -125.5 3t-97 15.5t-74.5 30t-51.5 54.5t-35.5 79.5t-20 115t-11 152t-2 198.5q0 121 2 203.5t11.5 155t20.5 115.5t37 79t52 52t74.5 27.5t95.5 14t124 2.5
q61 0 101.5 -1.5t83.5 -8t69 -15.5t53 -28t41.5 -42.5t29.5 -62t21.5 -82t12 -108t7 -135t1.5 -166.5zM811 643q0 95 -1.5 160t-8.5 121.5t-14 90.5t-25 61t-35 40t-50 21.5t-63.5 10t-81.5 1.5t-81.5 -1.5t-63 -10t-49 -21.5t-34.5 -40t-25 -61t-13.5 -90.5t-8 -121.5
t-1.5 -160q0 -85 1.5 -145.5t5 -116.5t11 -92.5t17 -69t26 -51t35 -33t47 -21t59.5 -9.5t74 -3q49 0 82.5 3t64.5 14t49.5 27t35 47t24.5 67.5t14 95.5t7.5 125t1.5 162zM674 1411q0 -15 -6 -29l-6 -14q-18 -37 -56 -37q-15 -3 -31 6l-294 150q-37 18 -37 55q0 17 6 29l8 14
q21 35 53 35q21 0 31 -6l297 -150q35 -17 35 -53z" />
    <glyph glyph-name="Oacute" unicode="&#xd3;" 
d="M952 625q0 -119 -2 -198.5t-11 -152t-20.5 -115.5t-36.5 -79.5t-52 -54t-74.5 -30t-97 -15.5t-126.5 -3q-76 0 -125.5 3t-97 15.5t-74.5 30t-51.5 54.5t-35.5 79.5t-20 115t-11 152t-2 198.5q0 121 2 203.5t11.5 155t20.5 115.5t37 79t52 52t74.5 27.5t95.5 14t124 2.5
q61 0 101.5 -1.5t83.5 -8t69 -15.5t53 -28t41.5 -42.5t29.5 -62t21.5 -82t12 -108t7 -135t1.5 -166.5zM811 643q0 95 -1.5 160t-8.5 121.5t-14 90.5t-25 61t-35 40t-50 21.5t-63.5 10t-81.5 1.5t-81.5 -1.5t-63 -10t-49 -21.5t-34.5 -40t-25 -61t-13.5 -90.5t-8 -121.5
t-1.5 -160q0 -85 1.5 -145.5t5 -116.5t11 -92.5t17 -69t26 -51t35 -33t47 -21t59.5 -9.5t74 -3q49 0 82.5 3t64.5 14t49.5 27t35 47t24.5 67.5t14 95.5t7.5 125t1.5 162zM831 1542q0 -37 -36 -55l-295 -150q-16 -9 -31 -6q-38 0 -55 37l-6 14q-7 13 -7 29q0 35 35 53
l297 150q10 6 31 6q32 0 53 -35l8 -14q6 -12 6 -29z" />
    <glyph glyph-name="Ocircumflex" unicode="&#xd4;" 
d="M952 625q0 -119 -2 -198.5t-11 -152t-20.5 -115.5t-36.5 -79.5t-52 -54t-74.5 -30t-97 -15.5t-126.5 -3q-76 0 -125.5 3t-97 15.5t-74.5 30t-51.5 54.5t-35.5 79.5t-20 115t-11 152t-2 198.5q0 121 2 203.5t11.5 155t20.5 115.5t37 79t52 52t74.5 27.5t95.5 14t124 2.5
q61 0 101.5 -1.5t83.5 -8t69 -15.5t53 -28t41.5 -42.5t29.5 -62t21.5 -82t12 -108t7 -135t1.5 -166.5zM811 643q0 95 -1.5 160t-8.5 121.5t-14 90.5t-25 61t-35 40t-50 21.5t-63.5 10t-81.5 1.5t-81.5 -1.5t-63 -10t-49 -21.5t-34.5 -40t-25 -61t-13.5 -90.5t-8 -121.5
t-1.5 -160q0 -85 1.5 -145.5t5 -116.5t11 -92.5t17 -69t26 -51t35 -33t47 -21t59.5 -9.5t74 -3q49 0 82.5 3t64.5 14t49.5 27t35 47t24.5 67.5t14 95.5t7.5 125t1.5 162zM868 1415q0 -20 -8 -35l-8 -14q-19 -35 -53 -35q-14 0 -31 10l-231 136l-232 -136q-17 -10 -31 -10
q-34 0 -53 35l-8 14q-8 15 -8 35q0 33 33 51l268 146q13 8 31 8q12 0 28 -8l271 -146q32 -17 32 -51z" />
    <glyph glyph-name="Otilde" unicode="&#xd5;" 
d="M952 625q0 -119 -2 -198.5t-11 -152t-20.5 -115.5t-36.5 -79.5t-52 -54t-74.5 -30t-97 -15.5t-126.5 -3q-76 0 -125.5 3t-97 15.5t-74.5 30t-51.5 54.5t-35.5 79.5t-20 115t-11 152t-2 198.5q0 121 2 203.5t11.5 155t20.5 115.5t37 79t52 52t74.5 27.5t95.5 14t124 2.5
q61 0 101.5 -1.5t83.5 -8t69 -15.5t53 -28t41.5 -42.5t29.5 -62t21.5 -82t12 -108t7 -135t1.5 -166.5zM811 643q0 95 -1.5 160t-8.5 121.5t-14 90.5t-25 61t-35 40t-50 21.5t-63.5 10t-81.5 1.5t-81.5 -1.5t-63 -10t-49 -21.5t-34.5 -40t-25 -61t-13.5 -90.5t-8 -121.5
t-1.5 -160q0 -85 1.5 -145.5t5 -116.5t11 -92.5t17 -69t26 -51t35 -33t47 -21t59.5 -9.5t74 -3q49 0 82.5 3t64.5 14t49.5 27t35 47t24.5 67.5t14 95.5t7.5 125t1.5 162zM895 1554q0 -17 -18.5 -39.5t-35.5 -36.5t-46 -36q-91 -68 -160 -68q-32 0 -61.5 13.5t-43 25
t-32.5 31.5q-18 18 -34 30.5t-30 12.5q-47 0 -143 -90q-27 -23 -49 -23q-25 0 -44.5 20.5t-19.5 45.5q0 38 101 112q91 68 159 68q32 0 61.5 -13.5t43 -25t32.5 -31.5q18 -18 34 -30.5t30 -12.5q47 0 143 90q27 23 49 23q25 0 44.5 -20.5t19.5 -45.5z" />
    <glyph glyph-name="Odieresis" unicode="&#xd6;" 
d="M952 625q0 -119 -2 -198.5t-11 -152t-20.5 -115.5t-36.5 -79.5t-52 -54t-74.5 -30t-97 -15.5t-126.5 -3q-76 0 -125.5 3t-97 15.5t-74.5 30t-51.5 54.5t-35.5 79.5t-20 115t-11 152t-2 198.5q0 121 2 203.5t11.5 155t20.5 115.5t37 79t52 52t74.5 27.5t95.5 14t124 2.5
q61 0 101.5 -1.5t83.5 -8t69 -15.5t53 -28t41.5 -42.5t29.5 -62t21.5 -82t12 -108t7 -135t1.5 -166.5zM811 643q0 95 -1.5 160t-8.5 121.5t-14 90.5t-25 61t-35 40t-50 21.5t-63.5 10t-81.5 1.5t-81.5 -1.5t-63 -10t-49 -21.5t-34.5 -40t-25 -61t-13.5 -90.5t-8 -121.5
t-1.5 -160q0 -85 1.5 -145.5t5 -116.5t11 -92.5t17 -69t26 -51t35 -33t47 -21t59.5 -9.5t74 -3q49 0 82.5 3t64.5 14t49.5 27t35 47t24.5 67.5t14 95.5t7.5 125t1.5 162zM846 1518q0 -42 -30.5 -72.5t-72.5 -30.5q-41 0 -71.5 30.5t-30.5 72.5q0 41 30.5 71.5t71.5 30.5
q42 0 72.5 -30.5t30.5 -71.5zM432 1518q0 -42 -30.5 -72.5t-71.5 -30.5q-42 0 -72.5 30.5t-30.5 72.5q0 41 30.5 71.5t72.5 30.5q41 0 71.5 -30.5t30.5 -71.5z" />
    <glyph glyph-name="multiply" unicode="&#xd7;" 
d="M891 346q0 -26 -19 -41l-12 -10q-25 -21 -43 -21q-26 0 -47 21l-233 231l-234 -231q-21 -21 -43 -21q-24 0 -45 21l-10 10q-21 21 -21 47q0 23 21 43l233 232l-231 233q-21 21 -21 43q0 24 21 45l10 10q19 21 47 21q23 0 43 -21l230 -231l233 231q20 21 47 21
q26 0 41 -18l10 -13q21 -23 21 -45q0 -25 -21 -45l-231 -231l233 -234q21 -20 21 -47z" />
    <glyph glyph-name="Ugrave" unicode="&#xd9;" 
d="M1063 1190q0 -26 -17 -45t-47 -19h-81v-731q0 -106 -52 -202.5t-141.5 -156t-192.5 -59.5q-153 0 -266.5 125.5t-113.5 292.5v731h-80q-30 0 -47 19t-17 45q0 25 17.5 43t46.5 18h305q29 0 46 -18t17 -43q0 -26 -16.5 -45t-46.5 -19h-84v-731q0 -122 75 -207.5t164 -85.5
q96 0 170 88.5t74 204.5v731h-82q-30 0 -46.5 19t-16.5 45q0 25 17 43t46 18h305q29 0 46.5 -18t17.5 -43zM674 1411q0 -15 -6 -29l-6 -14q-18 -37 -56 -37q-15 -3 -31 6l-294 150q-37 18 -37 55q0 17 6 29l8 14q21 35 53 35q21 0 31 -6l297 -150q35 -17 35 -53z" />
    <glyph glyph-name="Uacute" unicode="&#xda;" 
d="M1063 1190q0 -26 -17 -45t-47 -19h-81v-731q0 -106 -52 -202.5t-141.5 -156t-192.5 -59.5q-153 0 -266.5 125.5t-113.5 292.5v731h-80q-30 0 -47 19t-17 45q0 25 17.5 43t46.5 18h305q29 0 46 -18t17 -43q0 -26 -16.5 -45t-46.5 -19h-84v-731q0 -122 75 -207.5t164 -85.5
q96 0 170 88.5t74 204.5v731h-82q-30 0 -46.5 19t-16.5 45q0 25 17 43t46 18h305q29 0 46.5 -18t17.5 -43zM831 1542q0 -37 -36 -55l-295 -150q-16 -9 -31 -6q-38 0 -55 37l-6 14q-7 13 -7 29q0 35 35 53l297 150q10 6 31 6q32 0 53 -35l8 -14q6 -12 6 -29z" />
    <glyph glyph-name="Ucircumflex" unicode="&#xdb;" 
d="M1063 1190q0 -26 -17 -45t-47 -19h-81v-731q0 -106 -52 -202.5t-141.5 -156t-192.5 -59.5q-153 0 -266.5 125.5t-113.5 292.5v731h-80q-30 0 -47 19t-17 45q0 25 17.5 43t46.5 18h305q29 0 46 -18t17 -43q0 -26 -16.5 -45t-46.5 -19h-84v-731q0 -122 75 -207.5t164 -85.5
q96 0 170 88.5t74 204.5v731h-82q-30 0 -46.5 19t-16.5 45q0 25 17 43t46 18h305q29 0 46.5 -18t17.5 -43zM868 1415q0 -20 -8 -35l-8 -14q-19 -35 -53 -35q-14 0 -31 10l-231 136l-232 -136q-17 -10 -31 -10q-34 0 -53 35l-8 14q-8 15 -8 35q0 33 33 51l268 146q13 8 31 8
q12 0 28 -8l271 -146q32 -17 32 -51z" />
    <glyph glyph-name="Udieresis" unicode="&#xdc;" 
d="M1063 1190q0 -26 -17 -45t-47 -19h-81v-731q0 -106 -52 -202.5t-141.5 -156t-192.5 -59.5q-153 0 -266.5 125.5t-113.5 292.5v731h-80q-30 0 -47 19t-17 45q0 25 17.5 43t46.5 18h305q29 0 46 -18t17 -43q0 -26 -16.5 -45t-46.5 -19h-84v-731q0 -122 75 -207.5t164 -85.5
q96 0 170 88.5t74 204.5v731h-82q-30 0 -46.5 19t-16.5 45q0 25 17 43t46 18h305q29 0 46.5 -18t17.5 -43zM846 1518q0 -42 -30.5 -72.5t-72.5 -30.5q-41 0 -71.5 30.5t-30.5 72.5q0 41 30.5 71.5t71.5 30.5q42 0 72.5 -30.5t30.5 -71.5zM432 1518q0 -42 -30.5 -72.5
t-71.5 -30.5q-42 0 -72.5 30.5t-30.5 72.5q0 41 30.5 71.5t72.5 30.5q41 0 71.5 -30.5t30.5 -71.5z" />
    <glyph glyph-name="Yacute" unicode="&#xdd;" 
d="M1030 1190q0 -26 -16.5 -45t-46.5 -19h-62l-297 -626v-375h70q29 0 46 -18.5t17 -43.5t-16.5 -44t-46.5 -19h-281q-30 0 -46.5 19t-16.5 44t17 43.5t46 18.5h70v375l-299 626h-62q-30 0 -46.5 19t-16.5 45q0 25 17 43t46 18h250q29 0 46.5 -18t17.5 -43q0 -26 -17 -45
t-47 -19h-30q183 -373 211 -485q13 51 66 172.5t99 216.5l46 96v0h-1h-1h-1h-1h-1h-1h-1h-1h-1h-1h-2h-1h-1h-2h-1h-2h-1h-2h-9q-30 0 -47 19t-17 45q0 25 17.5 43t46.5 18h250q29 0 46 -18t17 -43zM831 1548q0 -37 -36 -55l-295 -150q-16 -9 -31 -6q-38 0 -55 37l-6 15
q-7 11 -7 28q0 35 35 53l297 150q10 6 31 6q32 0 53 -35l8 -14q6 -12 6 -29z" />
    <glyph glyph-name="Thorn" unicode="&#xde;" 
d="M967 678q0 -150 -108 -252t-249 -102h-245v-199h92q29 0 46 -18.5t17 -43.5t-16.5 -44t-46.5 -19h-326q-30 0 -46.5 19t-16.5 44t17 43.5t46 18.5h92v1001h-92q-29 0 -46 18.5t-17 43.5q0 26 16.5 44.5t46.5 18.5h326q30 0 46.5 -18.5t16.5 -44.5q0 -25 -17 -43.5
t-46 -18.5h-92v-90h251q143 0 247 -105t104 -253zM823 680q0 92 -64.5 162.5t-162.5 70.5h-231v-467h194q114 0 189 70t75 164z" />
    <glyph glyph-name="agrave" unicode="&#xe0;" 
d="M1075 63q0 -23 -19 -43t-44 -20h-84q-46 0 -71 2.5t-55.5 18t-51.5 45.5q-118 -78 -299 -78q-151 0 -244.5 81.5t-93.5 192.5q0 144 167.5 224t446.5 85v39q0 68 -76 117t-188 49q-47 0 -113 -8q2 -4 2 -14q0 -37 -26 -63.5t-64 -26.5t-64 25.5t-26 64.5q0 77 69.5 111
t221.5 34q78 0 142.5 -15t107 -40.5t74.5 -56t48.5 -64t24.5 -61.5t8 -52v-469q23 -16 144 -16q30 0 46.5 -18.5t16.5 -43.5zM727 231v220q-218 -7 -345.5 -59.5t-127.5 -129.5q0 -62 60 -105.5t153 -43.5q222 0 260 118zM657 1042q0 -16 -6 -28l-6 -15q-16 -36 -55 -36
q-16 -3 -31 6l-295 149q-37 18 -37 56q0 16 6 28l9 15q21 34 53 34q20 0 31 -6l297 -149q34 -18 34 -54z" />
    <glyph glyph-name="aacute" unicode="&#xe1;" 
d="M1075 63q0 -23 -19 -43t-44 -20h-84q-46 0 -71 2.5t-55.5 18t-51.5 45.5q-118 -78 -299 -78q-151 0 -244.5 81.5t-93.5 192.5q0 144 167.5 224t446.5 85v39q0 68 -76 117t-188 49q-47 0 -113 -8q2 -4 2 -14q0 -37 -26 -63.5t-64 -26.5t-64 25.5t-26 64.5q0 77 69.5 111
t221.5 34q78 0 142.5 -15t107 -40.5t74.5 -56t48.5 -64t24.5 -61.5t8 -52v-469q23 -16 144 -16q30 0 46.5 -18.5t16.5 -43.5zM727 231v220q-218 -7 -345.5 -59.5t-127.5 -129.5q0 -62 60 -105.5t153 -43.5q222 0 260 118zM815 1174q0 -38 -37 -56l-295 -149q-15 -9 -30 -6
q-38 0 -56 36l-6 15q-6 12 -6 28q0 36 35 54l297 149q10 6 31 6q32 0 53 -34l8 -15q6 -12 6 -28z" />
    <glyph glyph-name="acircumflex" unicode="&#xe2;" 
d="M1075 63q0 -23 -19 -43t-44 -20h-84q-46 0 -71 2.5t-55.5 18t-51.5 45.5q-118 -78 -299 -78q-151 0 -244.5 81.5t-93.5 192.5q0 144 167.5 224t446.5 85v39q0 68 -76 117t-188 49q-47 0 -113 -8q2 -4 2 -14q0 -37 -26 -63.5t-64 -26.5t-64 25.5t-26 64.5q0 77 69.5 111
t221.5 34q78 0 142.5 -15t107 -40.5t74.5 -56t48.5 -64t24.5 -61.5t8 -52v-469q23 -16 144 -16q30 0 46.5 -18.5t16.5 -43.5zM727 231v220q-218 -7 -345.5 -59.5t-127.5 -129.5q0 -62 60 -105.5t153 -43.5q222 0 260 118zM852 1047q0 -22 -8 -35l-8 -15q-21 -34 -54 -34
q-13 0 -30 10l-232 135l-231 -135q-17 -10 -31 -10q-34 0 -53 34l-8 15q-9 13 -9 35q0 30 33 51l268 145q15 8 31 8q13 0 29 -8l270 -145q33 -19 33 -51z" />
    <glyph glyph-name="atilde" unicode="&#xe3;" 
d="M1075 63q0 -23 -19 -43t-44 -20h-84q-46 0 -71 2.5t-55.5 18t-51.5 45.5q-118 -78 -299 -78q-151 0 -244.5 81.5t-93.5 192.5q0 144 167.5 224t446.5 85v39q0 68 -76 117t-188 49q-47 0 -113 -8q2 -4 2 -14q0 -37 -26 -63.5t-64 -26.5t-64 25.5t-26 64.5q0 77 69.5 111
t221.5 34q78 0 142.5 -15t107 -40.5t74.5 -56t48.5 -64t24.5 -61.5t8 -52v-469q23 -16 144 -16q30 0 46.5 -18.5t16.5 -43.5zM727 231v220q-218 -7 -345.5 -59.5t-127.5 -129.5q0 -62 60 -105.5t153 -43.5q222 0 260 118zM879 1186q0 -17 -19 -40t-35.5 -36.5t-46.5 -36.5
q-90 -67 -160 -67q-32 0 -62 14t-41.5 24t-33.5 31l-14.5 14.5t-13 11.5t-12 9t-11.5 6t-12 2q-46 0 -144 -90q-26 -22 -49 -22q-24 0 -43.5 20t-19.5 45q0 17 18.5 40t35.5 37t46 36q90 67 160 67q32 0 62.5 -14t41 -23.5t33.5 -31.5q14 -13 24 -22.5t20 -15t20 -5.5
q48 0 143 90q26 22 49 22q25 0 44.5 -20t19.5 -45z" />
    <glyph glyph-name="adieresis" unicode="&#xe4;" 
d="M1075 63q0 -23 -19 -43t-44 -20h-84q-46 0 -71 2.5t-55.5 18t-51.5 45.5q-118 -78 -299 -78q-151 0 -244.5 81.5t-93.5 192.5q0 144 167.5 224t446.5 85v39q0 68 -76 117t-188 49q-47 0 -113 -8q2 -4 2 -14q0 -37 -26 -63.5t-64 -26.5t-64 25.5t-26 64.5q0 77 69.5 111
t221.5 34q78 0 142.5 -15t107 -40.5t74.5 -56t48.5 -64t24.5 -61.5t8 -52v-469q23 -16 144 -16q30 0 46.5 -18.5t16.5 -43.5zM727 231v220q-218 -7 -345.5 -59.5t-127.5 -129.5q0 -62 60 -105.5t153 -43.5q222 0 260 118zM829 1149q0 -41 -30.5 -71.5t-71.5 -30.5
t-71.5 30.5t-30.5 71.5t30.5 71.5t71.5 30.5t71.5 -30.5t30.5 -71.5zM416 1149q0 -41 -30.5 -71.5t-72.5 -30.5q-41 0 -71.5 30.5t-30.5 71.5t30.5 71.5t71.5 30.5q42 0 72.5 -30.5t30.5 -71.5z" />
    <glyph glyph-name="aring" unicode="&#xe5;" 
d="M1075 63q0 -23 -19 -43t-44 -20h-84q-46 0 -71 2.5t-55.5 18t-51.5 45.5q-118 -78 -299 -78q-151 0 -244.5 81.5t-93.5 192.5q0 144 167.5 224t446.5 85v39q0 68 -76 117t-188 49q-47 0 -113 -8q2 -4 2 -14q0 -37 -26 -63.5t-64 -26.5t-64 25.5t-26 64.5q0 77 69.5 111
t221.5 34q78 0 142.5 -15t107 -40.5t74.5 -56t48.5 -64t24.5 -61.5t8 -52v-469q23 -16 144 -16q30 0 46.5 -18.5t16.5 -43.5zM727 231v220q-218 -7 -345.5 -59.5t-127.5 -129.5q0 -62 60 -105.5t153 -43.5q222 0 260 118zM686 1145q0 -49 -48 -86t-118 -37t-118 37t-48 86
t48 86t118 37t118 -37t48 -86zM602 1145q0 25 -25 42t-57 17t-57 -17t-25 -42t25 -42.5t57 -17.5t57 17.5t25 42.5z" />
    <glyph glyph-name="ccedilla" unicode="&#xe7;" 
d="M954 223q0 -13 -9 -38t-34 -60t-62.5 -64.5t-103 -51t-145.5 -21.5q-126 0 -230 62t-162 166t-58 226q0 57 15 117t51 122t88.5 109.5t136 78t184.5 30.5q173 0 242 -38.5t69 -108.5q0 -39 -26 -64.5t-64 -25.5t-64 25.5t-26 64.5q0 10 2 12q-64 10 -133 10
q-79 0 -141 -25.5t-97 -62.5t-58 -84.5t-30.5 -86.5t-7.5 -73q0 -138 94.5 -233.5t226.5 -95.5q154 0 203 123q19 45 57 45h25q25 0 41 -16.5t16 -41.5zM877 -211q0 -47 -17 -82t-52 -57t-75 -36.5t-101 -21t-113 -8.5t-126 -2q-30 0 -46.5 19t-16.5 45q0 25 16.5 43
t46.5 18q186 0 264 15t78 67q0 32 -38.5 55t-100.5 23q-26 0 -45 16.5t-19 46.5v109q0 29 18.5 46t43.5 17h16q24 0 44 -18.5t20 -44.5v-55q98 -19 150.5 -69.5t52.5 -125.5z" />
    <glyph glyph-name="egrave" unicode="&#xe8;" 
d="M950 217q0 -17 -11.5 -43.5t-40 -59t-68.5 -60.5t-105 -47t-141 -19q-197 0 -334 135t-137 323q0 189 128.5 321t311.5 132q129 0 220 -61t134 -161t43 -228q0 -26 -18.5 -44t-44.5 -18h-629q24 -127 121.5 -200.5t218.5 -73.5q25 0 52 5t59 17.5t60 39t44 63.5
q6 18 23 30.5t36 12.5h15q26 0 44.5 -19t18.5 -45zM805 512q-7 75 -32 128.5t-62 81.5t-76 40t-82 12q-107 0 -189 -74.5t-104 -187.5h545zM690 1042q0 -16 -6 -28l-6 -15q-16 -36 -55 -36q-16 -3 -31 6l-295 149q-37 18 -37 56q0 16 6 28l8 15q23 34 54 34q20 0 30 -6
l297 -149q35 -18 35 -54z" />
    <glyph glyph-name="eacute" unicode="&#xe9;" 
d="M950 217q0 -17 -11.5 -43.5t-40 -59t-68.5 -60.5t-105 -47t-141 -19q-197 0 -334 135t-137 323q0 189 128.5 321t311.5 132q129 0 220 -61t134 -161t43 -228q0 -26 -18.5 -44t-44.5 -18h-629q24 -127 121.5 -200.5t218.5 -73.5q25 0 52 5t59 17.5t60 39t44 63.5
q6 18 23 30.5t36 12.5h15q26 0 44.5 -19t18.5 -45zM805 512q-7 75 -32 128.5t-62 81.5t-76 40t-82 12q-107 0 -189 -74.5t-104 -187.5h545zM848 1174q0 -38 -37 -56l-295 -149q-15 -9 -31 -6q-39 0 -55 36l-6 15q-6 12 -6 28q0 36 35 54l297 149q10 6 30 6q31 0 54 -34
l8 -15q6 -12 6 -28z" />
    <glyph glyph-name="ecircumflex" unicode="&#xea;" 
d="M950 217q0 -17 -11.5 -43.5t-40 -59t-68.5 -60.5t-105 -47t-141 -19q-197 0 -334 135t-137 323q0 189 128.5 321t311.5 132q129 0 220 -61t134 -161t43 -228q0 -26 -18.5 -44t-44.5 -18h-629q24 -127 121.5 -200.5t218.5 -73.5q25 0 52 5t59 17.5t60 39t44 63.5
q6 18 23 30.5t36 12.5h15q26 0 44.5 -19t18.5 -45zM805 512q-7 75 -32 128.5t-62 81.5t-76 40t-82 12q-107 0 -189 -74.5t-104 -187.5h545zM885 1047q0 -22 -8 -35l-9 -15q-19 -34 -53 -34q-13 0 -31 10l-231 135l-231 -135q-18 -10 -31 -10q-34 0 -53 34l-9 15q-8 13 -8 35
q0 31 33 51l268 145q13 8 31 8q11 0 29 -8l270 -145q33 -20 33 -51z" />
    <glyph glyph-name="edieresis" unicode="&#xeb;" 
d="M950 217q0 -17 -11.5 -43.5t-40 -59t-68.5 -60.5t-105 -47t-141 -19q-197 0 -334 135t-137 323q0 189 128.5 321t311.5 132q129 0 220 -61t134 -161t43 -228q0 -26 -18.5 -44t-44.5 -18h-629q24 -127 121.5 -200.5t218.5 -73.5q25 0 52 5t59 17.5t60 39t44 63.5
q6 18 23 30.5t36 12.5h15q26 0 44.5 -19t18.5 -45zM805 512q-7 75 -32 128.5t-62 81.5t-76 40t-82 12q-107 0 -189 -74.5t-104 -187.5h545zM862 1149q0 -41 -30.5 -71.5t-71.5 -30.5t-72 30.5t-31 71.5t31 71.5t72 30.5t71.5 -30.5t30.5 -71.5zM449 1149q0 -41 -31 -71.5
t-72 -30.5t-71.5 30.5t-30.5 71.5t30.5 71.5t71.5 30.5t72 -30.5t31 -71.5z" />
    <glyph glyph-name="igrave" unicode="&#xec;" 
d="M928 63q0 -25 -17 -44t-47 -19h-641q-30 0 -46.5 19t-16.5 44t17 43.5t46 18.5h269v633h-252q-30 0 -47 19t-17 44t17.5 43.5t46.5 18.5h329q30 0 47 -17.5t17 -44.5v-696h231q29 0 46.5 -18.5t17.5 -43.5zM698 1042q0 -16 -6 -28l-6 -15q-16 -36 -55 -36q-16 -3 -31 6
l-295 149q-37 18 -37 56q0 16 6 28l9 15q21 34 53 34q20 0 31 -6l297 -149q34 -18 34 -54z" />
    <glyph glyph-name="iacute" unicode="&#xed;" 
d="M928 63q0 -25 -17 -44t-47 -19h-641q-30 0 -46.5 19t-16.5 44t17 43.5t46 18.5h269v633h-252q-30 0 -47 19t-17 44t17.5 43.5t46.5 18.5h329q30 0 47 -17.5t17 -44.5v-696h231q29 0 46.5 -18.5t17.5 -43.5zM856 1174q0 -38 -37 -56l-295 -149q-15 -9 -30 -6q-38 0 -56 36
l-6 15q-6 12 -6 28q0 36 35 54l297 149q10 6 30 6q31 0 54 -34l8 -15q6 -12 6 -28z" />
    <glyph glyph-name="icircumflex" unicode="&#xee;" 
d="M928 63q0 -25 -17 -44t-47 -19h-641q-30 0 -46.5 19t-16.5 44t17 43.5t46 18.5h269v633h-252q-30 0 -47 19t-17 44t17.5 43.5t46.5 18.5h329q30 0 47 -17.5t17 -44.5v-696h231q29 0 46.5 -18.5t17.5 -43.5zM893 1047q0 -22 -8 -35l-8 -15q-21 -34 -54 -34q-13 0 -30 10
l-232 135l-231 -135q-18 -10 -31 -10q-34 0 -53 34l-8 15q-9 13 -9 35q0 30 33 51l268 145q15 8 31 8q13 0 29 -8l270 -145q33 -19 33 -51z" />
    <glyph glyph-name="idieresis" unicode="&#xef;" 
d="M928 63q0 -25 -17 -44t-47 -19h-641q-30 0 -46.5 19t-16.5 44t17 43.5t46 18.5h269v633h-252q-30 0 -47 19t-17 44t17.5 43.5t46.5 18.5h329q30 0 47 -17.5t17 -44.5v-696h231q29 0 46.5 -18.5t17.5 -43.5zM870 1149q0 -41 -30.5 -71.5t-71.5 -30.5t-71.5 30.5
t-30.5 71.5t30.5 71.5t71.5 30.5t71.5 -30.5t30.5 -71.5zM457 1149q0 -41 -30.5 -71.5t-72.5 -30.5q-41 0 -71.5 30.5t-30.5 71.5t30.5 71.5t71.5 30.5q42 0 72.5 -30.5t30.5 -71.5z" />
    <glyph glyph-name="eth" unicode="&#xf0;" 
d="M948 494q0 -95 -9.5 -151t-41.5 -120q-55 -109 -157.5 -172t-207.5 -63q-108 0 -203.5 58t-154.5 163.5t-59 232.5q0 124 57 229t152.5 164.5t205.5 59.5q63 0 131 -23t115 -63q-28 63 -94 134.5t-141 113.5l-21 -41q-20 -41 -57 -41q-25 0 -43.5 18.5t-18.5 42.5
q0 10 9 33l20 43q-107 37 -199 43q-28 -92 -30 -98q-6 -19 -22 -30t-36 -11q-26 0 -43.5 17.5t-17.5 43.5q0 7 4 23l47 125q14 32 53 32q13 0 25 -6q111 0 260 -47l25 53q15 35 55 35q26 0 43.5 -18.5t17.5 -44.5q0 -7 -6 -25l-22 -53q195 -116 288 -303q76 -151 76 -354z
M807 457q0 137 -85 226t-190 89q-111 0 -193.5 -89.5t-82.5 -223.5q0 -140 81 -244t198 -104q111 0 191.5 105t80.5 241z" />
    <glyph glyph-name="ntilde" unicode="&#xf1;" 
d="M1055 63q0 -25 -17 -44t-47 -19h-350q-30 0 -46.5 19t-16.5 44t17 43.5t46 18.5h96v493q0 76 -30 114t-109 38q-41 0 -85.5 -17.5t-83.5 -49.5t-64 -82t-25 -109v-387h115q29 0 46 -18.5t17 -43.5t-16.5 -44t-46.5 -19h-369q-30 0 -46.5 19t-16.5 44t17 43.5t46 18.5h113
v633h-113q-30 0 -46.5 19t-16.5 44t17 43.5t46 18.5h193q29 0 46 -17.5t17 -44.5v-37q111 111 266 111q126 0 198.5 -69.5t72.5 -207.5v-493h112q30 0 47 -18.5t17 -43.5zM895 1186q0 -17 -18.5 -40t-35.5 -37t-46 -36q-90 -67 -160 -67q-32 0 -62 13.5t-42.5 24.5t-32.5 31
q-14 13 -24 22.5t-20 15t-20 5.5q-47 0 -143 -90q-28 -22 -49 -22q-25 0 -44.5 20t-19.5 45q0 17 19 40t35.5 36.5t46.5 36.5q90 67 159 67q32 0 62 -13.5t42.5 -24.5t32.5 -31q14 -13 24 -22.5t20 -15t20 -5.5q48 0 143 90q28 22 49 22q25 0 44.5 -20t19.5 -45z" />
    <glyph glyph-name="ograve" unicode="&#xf2;" 
d="M956 442q0 -191 -124 -322.5t-295 -131.5q-172 0 -296 131t-124 323q0 191 123.5 324t296.5 133t296 -133t123 -324zM815 457q0 136 -82.5 226.5t-195.5 90.5t-196 -90.5t-83 -226.5q0 -143 82 -243.5t197 -100.5q114 0 196 100.5t82 243.5zM674 1042q0 -16 -6 -28
l-6 -15q-18 -36 -56 -36q-15 -3 -31 6l-294 149q-37 18 -37 56q0 16 6 28l8 15q21 34 53 34q21 0 31 -6l297 -149q35 -18 35 -54z" />
    <glyph glyph-name="oacute" unicode="&#xf3;" 
d="M956 442q0 -191 -124 -322.5t-295 -131.5q-172 0 -296 131t-124 323q0 191 123.5 324t296.5 133t296 -133t123 -324zM815 457q0 136 -82.5 226.5t-195.5 90.5t-196 -90.5t-83 -226.5q0 -143 82 -243.5t197 -100.5q114 0 196 100.5t82 243.5zM831 1174q0 -38 -36 -56
l-295 -149q-16 -9 -31 -6q-39 0 -55 36l-6 15q-7 11 -7 28q0 35 35 54l297 149q10 6 31 6q32 0 53 -34l8 -15q6 -12 6 -28z" />
    <glyph glyph-name="ocircumflex" unicode="&#xf4;" 
d="M956 442q0 -191 -124 -322.5t-295 -131.5q-172 0 -296 131t-124 323q0 191 123.5 324t296.5 133t296 -133t123 -324zM815 457q0 136 -82.5 226.5t-195.5 90.5t-196 -90.5t-83 -226.5q0 -143 82 -243.5t197 -100.5q114 0 196 100.5t82 243.5zM868 1047q0 -22 -8 -35
l-8 -15q-19 -34 -53 -34q-14 0 -31 10l-231 135l-232 -135q-17 -10 -31 -10q-34 0 -53 34l-8 15q-8 13 -8 35q0 31 33 51l268 145q13 8 31 8q12 0 28 -8l271 -145q32 -19 32 -51z" />
    <glyph glyph-name="otilde" unicode="&#xf5;" 
d="M956 442q0 -191 -124 -322.5t-295 -131.5q-172 0 -296 131t-124 323q0 191 123.5 324t296.5 133t296 -133t123 -324zM815 457q0 136 -82.5 226.5t-195.5 90.5t-196 -90.5t-83 -226.5q0 -143 82 -243.5t197 -100.5q114 0 196 100.5t82 243.5zM895 1186q0 -17 -18.5 -40
t-35.5 -37t-46 -36q-90 -67 -160 -67q-32 0 -62 13.5t-42.5 24.5t-32.5 31q-14 13 -24 22.5t-20 15t-20 5.5q-47 0 -143 -90q-28 -22 -49 -22q-25 0 -44.5 20t-19.5 45q0 17 19 40t35.5 36.5t46.5 36.5q90 67 159 67q32 0 62 -13.5t42.5 -24.5t32.5 -31q14 -13 24 -22.5
t20 -15t20 -5.5q48 0 143 90q28 22 49 22q25 0 44.5 -20t19.5 -45z" />
    <glyph glyph-name="odieresis" unicode="&#xf6;" 
d="M956 442q0 -191 -124 -322.5t-295 -131.5q-172 0 -296 131t-124 323q0 191 123.5 324t296.5 133t296 -133t123 -324zM815 457q0 136 -82.5 226.5t-195.5 90.5t-196 -90.5t-83 -226.5q0 -143 82 -243.5t197 -100.5q114 0 196 100.5t82 243.5zM846 1149q0 -41 -30.5 -71.5
t-72.5 -30.5q-41 0 -71.5 30.5t-30.5 71.5t30.5 71.5t71.5 30.5q42 0 72.5 -30.5t30.5 -71.5zM432 1149q0 -41 -30.5 -71.5t-71.5 -30.5q-42 0 -72.5 30.5t-30.5 71.5t30.5 71.5t72.5 30.5q41 0 71.5 -30.5t30.5 -71.5z" />
    <glyph glyph-name="divide" unicode="&#xf7;" 
d="M639 985q0 -41 -30.5 -71.5t-71.5 -30.5q-42 0 -72.5 30.5t-30.5 71.5t30.5 71.5t72.5 30.5q41 0 71.5 -30.5t30.5 -71.5zM997 621q0 -26 -16.5 -45t-46.5 -19h-793q-29 0 -46 18.5t-17 42.5v17q0 26 16.5 44.5t46.5 18.5h793q29 0 46 -18t17 -43v-16zM641 268
q0 -43 -29.5 -72.5t-72.5 -29.5t-73 29.5t-30 72.5q0 44 30 73.5t73 29.5t72.5 -30t29.5 -73z" />
    <glyph glyph-name="ugrave" unicode="&#xf9;" 
d="M1051 63q0 -25 -17 -44t-47 -19h-190q-30 0 -47 19t-17 44q-108 -75 -244 -75q-128 0 -209 58.5t-81 164.5v547h-111q-30 0 -46.5 19t-16.5 44t17 43.5t46 18.5h188q30 0 47 -17.5t17 -44.5v-610q0 -98 162 -98q30 0 66 9t75 28.5t64.5 57t25.5 87.5v463h-110
q-30 0 -47 19t-17 44t17.5 43.5t46.5 18.5h188q30 0 46.5 -17.5t16.5 -44.5v-696h113q29 0 46.5 -18.5t17.5 -43.5zM674 1042q0 -16 -6 -28l-6 -15q-18 -36 -56 -36q-15 -3 -31 6l-294 149q-37 18 -37 56q0 16 6 28l8 15q21 34 53 34q21 0 31 -6l297 -149q35 -18 35 -54z
" />
    <glyph glyph-name="uacute" unicode="&#xfa;" 
d="M1051 63q0 -25 -17 -44t-47 -19h-190q-30 0 -47 19t-17 44q-108 -75 -244 -75q-128 0 -209 58.5t-81 164.5v547h-111q-30 0 -46.5 19t-16.5 44t17 43.5t46 18.5h188q30 0 47 -17.5t17 -44.5v-610q0 -98 162 -98q30 0 66 9t75 28.5t64.5 57t25.5 87.5v463h-110
q-30 0 -47 19t-17 44t17.5 43.5t46.5 18.5h188q30 0 46.5 -17.5t16.5 -44.5v-696h113q29 0 46.5 -18.5t17.5 -43.5zM831 1174q0 -38 -36 -56l-295 -149q-16 -9 -31 -6q-39 0 -55 36l-6 15q-7 11 -7 28q0 35 35 54l297 149q10 6 31 6q32 0 53 -34l8 -15q6 -12 6 -28z" />
    <glyph glyph-name="ucircumflex" unicode="&#xfb;" 
d="M1051 63q0 -25 -17 -44t-47 -19h-190q-30 0 -47 19t-17 44q-108 -75 -244 -75q-128 0 -209 58.5t-81 164.5v547h-111q-30 0 -46.5 19t-16.5 44t17 43.5t46 18.5h188q30 0 47 -17.5t17 -44.5v-610q0 -98 162 -98q30 0 66 9t75 28.5t64.5 57t25.5 87.5v463h-110
q-30 0 -47 19t-17 44t17.5 43.5t46.5 18.5h188q30 0 46.5 -17.5t16.5 -44.5v-696h113q29 0 46.5 -18.5t17.5 -43.5zM868 1047q0 -22 -8 -35l-8 -15q-19 -34 -53 -34q-14 0 -31 10l-231 135l-232 -135q-17 -10 -31 -10q-34 0 -53 34l-8 15q-8 13 -8 35q0 31 33 51l268 145
q13 8 31 8q12 0 28 -8l271 -145q32 -19 32 -51z" />
    <glyph glyph-name="udieresis" unicode="&#xfc;" 
d="M1051 63q0 -25 -17 -44t-47 -19h-190q-30 0 -47 19t-17 44q-108 -75 -244 -75q-128 0 -209 58.5t-81 164.5v547h-111q-30 0 -46.5 19t-16.5 44t17 43.5t46 18.5h188q30 0 47 -17.5t17 -44.5v-610q0 -98 162 -98q30 0 66 9t75 28.5t64.5 57t25.5 87.5v463h-110
q-30 0 -47 19t-17 44t17.5 43.5t46.5 18.5h188q30 0 46.5 -17.5t16.5 -44.5v-696h113q29 0 46.5 -18.5t17.5 -43.5zM846 1149q0 -41 -30.5 -71.5t-72.5 -30.5q-41 0 -71.5 30.5t-30.5 71.5t30.5 71.5t71.5 30.5q42 0 72.5 -30.5t30.5 -71.5zM432 1149q0 -41 -30.5 -71.5
t-71.5 -30.5q-42 0 -72.5 30.5t-30.5 71.5t30.5 71.5t72.5 30.5q41 0 71.5 -30.5t30.5 -71.5z" />
    <glyph glyph-name="yacute" unicode="&#xfd;" 
d="M84 -301q0 38 26.5 64t63.5 26t63.5 -26t26.5 -64q0 -21 -10 -41q60 0 111.5 47t76.5 119l60 176l-303 758h-88q-30 0 -47 19t-17 44t17.5 43.5t46.5 18.5h282q29 0 46.5 -18.5t17.5 -43.5t-17 -44t-47 -19h-69q206 -504 237 -619q18 72 113 345l94 274h-78
q-30 0 -46.5 19t-16.5 44t17 43.5t46 18.5h283q29 0 46 -18.5t17 -43.5t-16.5 -44t-46.5 -19h-84l-322 -934q-17 -49 -44.5 -97t-65.5 -93t-90.5 -73t-108.5 -28q-73 0 -123.5 50t-50.5 116zM856 1174q0 -38 -37 -56l-295 -149q-15 -9 -30 -6q-38 0 -56 36l-6 15
q-6 12 -6 28q0 36 35 54l297 149q10 6 30 6q31 0 54 -34l8 -15q6 -12 6 -28z" />
    <glyph glyph-name="thorn" unicode="&#xfe;" 
d="M999 442q0 -95 -34.5 -180t-92 -144.5t-134.5 -94.5t-160 -35q-136 0 -238 104v-422h115q29 0 46 -18t17 -43q0 -26 -16.5 -45t-46.5 -19h-367q-30 0 -46.5 19t-16.5 45q0 25 17 43t46 18h111v1454h-113q-30 0 -46.5 19t-16.5 45q0 25 17 43t46 18h190q30 0 47 -17
t17 -44v-393q111 100 260 100q107 0 199 -60t146 -164.5t54 -228.5zM858 442q0 135 -78.5 231.5t-191.5 96.5q-92 0 -159 -58t-89 -139v-208q5 -37 21.5 -78t43.5 -81.5t71 -66.5t95 -26q113 0 200 93.5t87 235.5z" />
    <glyph glyph-name="ydieresis" unicode="&#xff;" 
d="M84 -301q0 38 26.5 64t63.5 26t63.5 -26t26.5 -64q0 -21 -10 -41q60 0 111.5 47t76.5 119l60 176l-303 758h-88q-30 0 -47 19t-17 44t17.5 43.5t46.5 18.5h282q29 0 46.5 -18.5t17.5 -43.5t-17 -44t-47 -19h-69q206 -504 237 -619q18 72 113 345l94 274h-78
q-30 0 -46.5 19t-16.5 44t17 43.5t46 18.5h283q29 0 46 -18.5t17 -43.5t-16.5 -44t-46.5 -19h-84l-322 -934q-17 -49 -44.5 -97t-65.5 -93t-90.5 -73t-108.5 -28q-73 0 -123.5 50t-50.5 116zM870 1149q0 -41 -30.5 -71.5t-71.5 -30.5t-71.5 30.5t-30.5 71.5t30.5 71.5
t71.5 30.5t71.5 -30.5t30.5 -71.5zM457 1149q0 -41 -30.5 -71.5t-72.5 -30.5q-41 0 -71.5 30.5t-30.5 71.5t30.5 71.5t71.5 30.5q42 0 72.5 -30.5t30.5 -71.5z" />
  </font>
</defs>
</svg>
